<?xml version="1.0" encoding="UTF-8"?>
<!DOCTYPE svg PUBLIC "-//W3C//DTD SVG 1.1//EN" "http://www.w3.org/Graphics/SVG/1.1/DTD/svg11.dtd">
<!-- Creator: CorelDRAW 2026 (Evaluation Version) -->
<svg xmlns="http://www.w3.org/2000/svg" xml:space="preserve" width="216.126mm" height="80.544mm" version="1.1" style="shape-rendering:geometricPrecision; text-rendering:geometricPrecision; image-rendering:optimizeQuality; fill-rule:evenodd; clip-rule:evenodd"
viewBox="0 0 21612.6 8054.4"
 xmlns:xlink="http://www.w3.org/1999/xlink"
 xmlns:xodm="http://www.corel.com/coreldraw/odm/2003">
 <defs>
  <style type="text/css">
   <![CDATA[
    .fil10 {fill:#1C2D43}
    .fil6 {fill:#244E7B}
    .fil8 {fill:#265A93}
    .fil0 {fill:#2E4359}
    .fil7 {fill:#3A76BC}
    .fil1 {fill:#3D6188}
    .fil2 {fill:#406FA4}
    .fil9 {fill:#93A4B5}
    .fil4 {fill:#B1BECA}
    .fil5 {fill:#C7D0D9}
    .fil3 {fill:#E6E8EA}
   ]]>
  </style>
 </defs>
 <g id="Layer_x0020_1">
  <metadata id="CorelCorpID_0Corel-Layer"/>
  <g id="_32746690016">
   <path class="fil0" d="M3858.84 6606.37l0.97 1450.95c279.99,-37.3 1562.53,-714 1870.21,-878.77 468.25,-250.77 1119.47,-660.37 1581.12,-965.54l81.63 -70.5c3.02,-11.25 11.31,-12.1 15.95,-18.91 -96.75,-111.94 -571.98,-358.42 -720.33,-444.98 -154.28,-89.99 -609.25,-395.97 -765.01,-423.33l0 50.81c50.7,33 105.28,-32.14 -29.22,104.71l-350.05 305.96c-383.12,302.68 -1235.86,842.61 -1685.27,889.6z"/>
   <path class="fil1" d="M3641.09 6545.77c-135.57,-97.79 -398.87,-176.93 -561.55,-243.28 -174.43,-71.16 -388.04,-189 -523.86,-261.57 -50.85,-27.18 -92.88,-57.6 -133.86,-81.46l-346.33 -224.14c-78.88,-55.16 -404.41,-241.97 -440.18,-332.05l-123.54 -0.26 -1335 805.65c231.29,284.02 3187.18,1875.35 3449.61,1828.38l14.71 -1491.27z"/>
   <path class="fil2" d="M3866.7 1371.33c496.13,161.26 611.67,99.59 1164.05,434.26 574.65,348.18 645.78,543.3 892.5,723.99l1363.83 -802.46c-4.2,-5.74 -10.81,-21.53 -13.02,-16.91 -0.03,0.08 -19.97,-42.42 -155.08,-122.76 -300.2,-178.5 -664.64,-438.23 -1010.07,-618.76 -413.76,-216.24 -1943.02,-986.24 -2234.69,-965.33l-7.52 1367.97z"/>
   <path class="fil3" d="M155.07 1820.43c260.85,80.23 1075.38,646.41 1317.42,715.17 326.55,-294.22 536.33,-473.84 959.9,-717 256.96,-147.49 573.37,-293.02 869.26,-380.11 100.76,-29.66 249.2,-53.43 330.88,-93.76l3.07 -1329.75c-449.63,-18.13 -3296.1,1494.27 -3480.53,1805.45z"/>
   <path class="fil4" d="M3729.32 5622.23l-1.36 -1706.74 -22.2 -33.08c-2.23,-5.27 -6.56,-12.76 -8.62,-19.05l-12.53 -98.19c-11.2,-309.96 27.4,-931.43 -3.43,-1179.66 -140.92,0.87 -1075.15,524.8 -1292.77,633.18l5.82 1639.93 1335.09 763.61z"/>
   <path class="fil5" d="M27.76 5408.04l33.13 -561.8c60.64,-29.24 110.91,-32.26 181.26,-63.39l149.65 -95.88c201.6,-133.4 12.02,-33.36 146.05,-174.19 3.89,-4.08 9.38,-10.17 13.56,-14.11l227.67 -128.24c24.27,-13.75 52.67,-22.9 78.1,-32.63 144.67,-55.35 80.59,-61.77 155.2,-75.03 59.88,-10.64 31.99,21.97 197.25,-10.68l17.18 -3.2c66.51,-7.24 -53.93,45.04 14.18,2.14l37.83 -596.92c8.74,-112.11 42.04,-765.76 123.58,-865.99 -29.12,-72.49 -13.76,-41.79 -65.93,-85.99 -129,-109.28 -1192.03,-698.81 -1276.65,-707.58 7.41,258.19 -33.05,577.55 -45.88,845 -51.2,1066.7 14.32,1596.72 13.82,2568.49z"/>
   <path class="fil6" d="M4056.2 3869.62c79.47,94.71 1608.71,975.38 1812.77,1082.04 151.15,-211.69 214.12,-772.56 207.61,-1081.6 -11.86,-563.59 -135.96,-653.97 -226.41,-1036.8 -236.43,82.42 -673.26,372.79 -913.16,511.79 -154.37,89.46 -286.54,174.08 -441.86,264.46 -110.27,64.17 -363.32,195.95 -438.95,260.11z"/>
   <path class="fil7" d="M6031.81 2731.25c136.53,398.01 242.58,736.17 229.75,1210.48l1308.43 -9.62c1.45,-922.82 -158.34,-1515.94 -165.96,-2005.9 -87.49,4.69 -581.83,305.26 -686.93,375 -172.48,114.44 -576.65,314.41 -685.29,430.04z"/>
   <path class="fil8" d="M3891.73 3702.69c34.75,-9.66 1737.67,-969.72 1828.3,-1079.98 -82,-145.29 -596.66,-554 -769.83,-655.98 -264.97,-156 -697.5,-319.61 -1063.98,-361.46l5.51 2097.42z"/>
   <path class="fil9" d="M7458.36 5920.12c99.85,-390.93 114.3,-1359.39 118.5,-1807.63l-1317.66 12.61c-55.33,365 -128.41,617.05 -205.29,967.22 160.51,133.08 508.08,310.56 713.52,431.32 215.63,126.74 480.38,302.01 690.93,396.48z"/>
   <path class="fil4" d="M27.76 5408.04l44.67 602.87c91.37,-3.87 579.14,-314.92 673.24,-369.72 126.33,-73.57 570.11,-362.41 674.38,-372.8 9.5,-212.42 -81.52,-540.37 -107.68,-773.49 -32.64,-291.05 -45.35,-545.05 -33.55,-840.79l-37.83 596.92c-68.11,42.9 52.33,-9.38 -14.18,-2.14l-17.18 3.2c-165.26,32.65 -137.37,0.04 -197.25,10.68 -74.61,13.26 -10.53,19.68 -155.2,75.03 -25.43,9.73 -53.83,18.88 -78.1,32.63l-227.67 128.24c-4.18,3.94 -9.67,10.03 -13.56,14.11 -134.03,140.83 55.55,40.79 -146.05,174.19l-149.65 95.88c-70.35,31.13 -120.62,34.15 -181.26,63.39l-33.13 561.8z"/>
   <path class="fil3" d="M9812.39 4134.12l318.17 10.61 3.07 -1142.44c78.19,63.48 189.58,218.15 257.51,308.96l510.31 656.6c154.8,204.11 101.73,182.04 429.78,178.59l-1.81 -1670.96 -327.58 3.85 2.15 1121.84c-109.15,-92.63 -624.83,-761.27 -763.17,-953.67 -126.07,-175.34 -135.76,-197.89 -430.67,-163.14l2.24 1649.76z"/>
   <path class="fil3" d="M15896.98 4129.62l312.55 14.5 4 -1143.54 768.19 965.93c156.26,213.19 95.02,176.06 432.71,181.41 -2.71,-268.33 33.2,-1520.9 -26.16,-1669.4l-291.65 0.2 -10.64 1129.19 -79.93 -73.13c-39.21,-43.88 -29.81,-37.8 -59.06,-76.31 -49.49,-65.18 -87.21,-115.26 -128.42,-170.34 -90.8,-121.34 -172.63,-221.34 -259.72,-336.86 -359.3,-476.54 -304.61,-495.54 -654.3,-469.71l-7.57 1648.06z"/>
   <path class="fil3" d="M13874.9 3326.45l-225.15 0.58 1.87 -564.53c256.79,2.63 693.28,-65.28 780.88,172.13 157.97,428.16 -414.29,391.37 -557.6,391.82zm-553.9 822.29l319.58 -4.67 3.57 -533.23 420.67 -13.41c61.88,72.9 350.19,518.51 407.13,541.97l366.5 0.49c-40.9,-43.01 -408.89,-519.71 -445.92,-595.61 174.32,-66.4 309.5,-150.09 356.21,-343.76 54.07,-224.19 -20.13,-442.25 -135.16,-556.76 -244.86,-243.81 -890.85,-166.64 -1292.11,-170.46l-0.47 1675.44z"/>
   <path class="fil0" d="M3729.32 5622.23c126.84,-16.07 647.85,-303.12 792.38,-383.02l677.1 -347.88c95.14,-64.59 31.61,-2.87 82.59,-92.3 -243.28,-148.61 -504.27,-291.06 -768.12,-445.99 -200.83,-117.93 -574.24,-367.81 -785.31,-437.55l1.36 1706.74z"/>
   <path class="fil10" d="M1278.82 3654.11c-11.8,295.74 0.91,549.74 33.55,840.79 26.16,233.12 117.18,561.07 107.68,773.49 6.99,-3.27 15.65,-8.36 20.44,-10.9l129.63 -66.3c39.58,-17.8 91.99,-38.66 134.23,-54.85 101.63,-38.96 207.47,-77.65 294.72,-107.61 -39.64,-496.74 -87.58,-891.07 -59.49,-1402.79 18.74,-341.48 10.52,-322.28 -175.75,-507.42 -121.89,-121.12 -222.13,-233.2 -361.43,-330.4 -81.54,100.23 -114.84,753.88 -123.58,865.99z"/>
   <path class="fil3" d="M17838.39 3742.64l-106.99 274.69c347.78,102 635.85,257.27 1068.69,112.21 402.95,-135.04 429.69,-591.73 192.43,-790.23 -240.54,-201.24 -843.69,-136.29 -901.69,-348.13 -115.82,-423.11 693.59,-207.08 891.76,-144.78l100.68 -254.28c-342.05,-79.97 -667.71,-240.68 -1051.86,-46.36 -321.68,162.73 -372.53,619.8 -40.91,791.93 262.59,136.29 936.73,70.97 821.4,416.01 -49.64,148.48 -302.92,161.69 -486.19,145.21 -190.26,-17.1 -354.6,-100.84 -487.32,-156.27z"/>
   <path class="fil3" d="M21591.98 3778.98c-81.13,12.9 -207.53,74.02 -324.7,94.74 -135.72,24 -283.63,21.77 -409.88,-10.96 -250.88,-64.99 -377.54,-219.02 -386.73,-508.17 -21.82,-686.84 593.94,-663.37 1119.88,-496.06l16.42 -286.88c-695.49,-270.5 -1456.66,-29.01 -1468.36,728.93 -15.22,985.38 1078.25,969.03 1457.05,771.96l-3.68 -293.56z"/>
   <path class="fil0" d="M1511.77 5403.01l123.54 0.26c35.77,90.08 361.3,276.89 440.18,332.05l346.33 224.14c40.98,23.86 83.01,54.28 133.86,81.46 135.82,72.57 349.43,190.41 523.86,261.57 162.68,66.35 425.98,145.49 561.55,243.28l69.8 -449.32 -1557.1 -847.58c-0.63,-0.02 -620.79,147.51 -642.02,154.14z"/>
   <path class="fil10" d="M3860.84 6531.51c389.14,-113.49 825.79,-320.58 1143.08,-513.33 229.51,-139.42 805.48,-552.59 919.46,-712.08l0 -50.81c-195.63,84.43 -350.48,-157.98 -589.51,4.24l-1181.32 664.17c-48.82,23.95 -76.13,37.99 -124.05,64.29l-111.65 66.66 -56.01 476.86z"/>
   <polygon class="fil3" points="11608.01,2773.49 12163.47,2780.09 12165.63,4144.94 12480.89,4134.83 12474.97,2774.62 13032.92,2772.19 13039.51,2475.77 11596.42,2481.53 "/>
   <path class="fil3" d="M15146.31 4143.27l317.58 -5.14 2.69 -1657.06 -303.22 -3.78c-52.47,153.58 -23.18,1409.46 -17.05,1665.98z"/>
   <polygon class="fil3" points="19466.03,4141.76 19782.7,4139.75 19787.04,2486 19463.79,2476.5 "/>
   <polygon class="fil3" points="9058.35,4140.48 9382.63,4144.06 9368.31,2480.9 9056.4,2481.3 "/>
   <path class="fil4" d="M14743.34 5693.29c26.51,-38.73 10.69,0.36 25.13,-62.58l5.59 -534.92c61.33,57.5 131.11,191.69 183.58,270.92 117.86,178 78.61,207.22 192.78,239.27 146.59,-87.5 220.72,-422.6 373.3,-514.03 -3.29,109.26 -0.94,217.02 -2.62,326.21 -1.75,114.3 -13.22,138.54 15.35,236.03 1.7,5.8 8.62,25.23 10.01,21.42 1.4,-3.79 6.37,14.49 11.05,21.52l81.41 -2c45.09,-84.5 23.76,-341.02 23.53,-439.97 -0.36,-148.11 7.96,-301.44 -8.27,-447.92 -132.31,-2.24 -118.58,-2.44 -180.32,92.11 -43.97,67.35 -70.23,111.53 -104.53,167.11 -68.36,110.8 -133.5,239.39 -218.91,341.6 -236.18,-200.41 -245.85,-600.56 -505.64,-601.37 -17.03,99.35 -38.4,788.68 17.11,883.31l81.45 3.29z"/>
   <path class="fil4" d="M13637.7 4925.36l237.2 -3.59c226.74,-1.73 254.73,34.5 305.41,-46.55 -31.7,-89.85 8.55,-43.89 -86.39,-67.95l-591.83 10.5 -4.07 873.33 322.6 6.14c206.07,0.32 370.3,37.35 371.6,-62.14 -24.26,-80.38 50.69,-41.68 -97.27,-61.25 -72.77,-9.63 -294.93,12.23 -448.3,-12.4l-4.77 -252.98 490.86 -12.94 -3.66 -106.43 -487.58 -20.28 -3.8 -243.46z"/>
   <path class="fil4" d="M9716.64 4877.35c-219.59,-102.54 -651.4,-141.67 -686.96,140.8 -31.99,254.09 229.32,260.23 405.91,307.25 33.95,9.05 70.57,18.49 101.18,35.41 71.46,39.54 21.53,0.31 62.03,52 80.68,304.47 -439.81,130.76 -547.2,95.13l-48.18 91.71c177.91,160.56 755.85,192.23 744.88,-153.7 -12.48,-393.57 -712.7,-111.64 -553.31,-498.4 288.85,-70.89 288.78,14.49 482.7,22.19l38.95 -92.39z"/>
   <path class="fil4" d="M16805.16 4869.36c-229.38,-101.06 -703.29,-138.57 -685.87,195.35 19.21,367.87 615.52,109.71 565.54,452.01 -82.66,142.08 -446.23,25.6 -466.24,21.41 -131.1,-27.35 -53.11,-50.97 -115.22,42.7 60.53,182.7 689.82,197.81 730.23,-85.23 60.47,-423.5 -630.21,-163.18 -572.83,-519.29 217.05,-138.49 380.47,13.44 504.7,-16.68l39.69 -90.27z"/>
   <path class="fil4" d="M11945.09 4873.49c-222.22,-94.78 -667.15,-155.93 -683.96,165.25 -18.95,362.38 469.58,165.01 583.97,406.4 -33.89,157.2 -160.45,162.24 -330.96,135.08 -185.23,-29.51 -219.61,-145.18 -281.15,27.74 194.14,149.76 728.34,167.15 744.28,-137.26 21.45,-409.61 -641.14,-135.35 -574.9,-495.08 196.8,-123.61 315.76,-32.2 503.22,-4.62l39.5 -97.51z"/>
   <path class="fil4" d="M10078.61 4815.65c111.1,243.94 332.08,422.56 347.82,602.45 12.15,138.85 -24.81,179.02 28.97,273.07l81.44 3.29 35.03 -139.91c2.29,-51.52 -6.24,-107.36 0.57,-159.97 16.54,-127.78 215.62,-358.91 296.15,-485.17 54.2,-84.99 20.26,-21.57 54.43,-101.8 -275.59,3.1 -172.29,127.91 -413.33,395.7 -199.61,-123.62 -135.71,-410.53 -431.08,-387.66z"/>
   <path class="fil4" d="M12765.67 4928.11c102.5,-8.89 240.02,10.9 323.35,-25.87l-7.22 -98.62c-151.92,0.78 -303.49,4.08 -455.43,3.62 -174.81,-0.52 -321.94,-57.3 -308.46,107.28l307.88 10.39 5.22 706.52c10.18,56.19 3.89,32.88 22.64,65.36l81.42 -0.22c75.26,-117.48 16.81,-7.81 29.35,-89.14l1.25 -679.32z"/>
   <path class="fil9" d="M3860.84 6531.51l-2 74.86c449.41,-46.99 1302.15,-586.92 1685.27,-889.6l350.05 -305.96c134.5,-136.85 79.92,-71.71 29.22,-104.71 -113.98,159.49 -689.95,572.66 -919.46,712.08 -317.29,192.75 -753.94,399.84 -1143.08,513.33z"/>
  </g>
 </g>
</svg>
