<?xml version="1.0" encoding="UTF-8"?>
<!DOCTYPE svg PUBLIC "-//W3C//DTD SVG 1.1//EN" "http://www.w3.org/Graphics/SVG/1.1/DTD/svg11.dtd">
<!-- Creator: CorelDRAW 2026 (Evaluation Version) -->
<svg xmlns="http://www.w3.org/2000/svg" xml:space="preserve" width="420mm" height="297mm" version="1.1" style="shape-rendering:geometricPrecision; text-rendering:geometricPrecision; image-rendering:optimizeQuality; fill-rule:evenodd; clip-rule:evenodd"
viewBox="0 0 42000 29700"
 xmlns:xlink="http://www.w3.org/1999/xlink"
 xmlns:xodm="http://www.corel.com/coreldraw/odm/2003">
 <defs>
  <style type="text/css">
   <![CDATA[
    .fil10 {fill:#1C2D43}
    .fil6 {fill:#244E7B}
    .fil8 {fill:#265A93}
    .fil0 {fill:#2E4359}
    .fil7 {fill:#3A76BC}
    .fil1 {fill:#3D6188}
    .fil2 {fill:#406FA4}
    .fil9 {fill:#93A4B5}
    .fil4 {fill:#B1BECA}
    .fil5 {fill:#C7D0D9}
    .fil3 {fill:#E6E8EA}
   ]]>
  </style>
 </defs>
 <g id="Layer_x0020_1">
  <metadata id="CorelCorpID_0Corel-Layer"/>
  <path class="fil0" d="M13561.84 17425.61l0.97 1450.95c279.99,-37.3 1562.53,-714 1870.21,-878.77 468.25,-250.77 1119.47,-660.37 1581.12,-965.54l81.63 -70.5c3.02,-11.25 11.31,-12.1 15.95,-18.91 -96.75,-111.94 -571.98,-358.42 -720.33,-444.98 -154.28,-89.99 -609.25,-395.97 -765.01,-423.33l0 50.81c50.7,33 105.28,-32.14 -29.22,104.71l-350.05 305.96c-383.12,302.68 -1235.86,842.61 -1685.27,889.6z"/>
  <path class="fil1" d="M13344.09 17365.01c-135.57,-97.79 -398.87,-176.93 -561.55,-243.28 -174.43,-71.16 -388.04,-189 -523.86,-261.57 -50.85,-27.18 -92.88,-57.6 -133.86,-81.46l-346.33 -224.14c-78.88,-55.16 -404.41,-241.97 -440.18,-332.05l-123.54 -0.26 -1335 805.65c231.29,284.02 3187.18,1875.35 3449.61,1828.38l14.71 -1491.27z"/>
  <path class="fil2" d="M13569.7 12190.57c496.13,161.26 611.67,99.59 1164.05,434.26 574.65,348.18 645.78,543.3 892.5,723.99l1363.83 -802.46c-4.2,-5.74 -10.81,-21.53 -13.02,-16.91 -0.03,0.08 -19.97,-42.42 -155.08,-122.76 -300.2,-178.5 -664.64,-438.23 -1010.07,-618.76 -413.76,-216.24 -1943.02,-986.24 -2234.69,-965.33l-7.52 1367.97z"/>
  <path class="fil3" d="M9858.07 12639.67c260.85,80.23 1075.38,646.41 1317.42,715.17 326.55,-294.22 536.33,-473.84 959.9,-717 256.96,-147.49 573.37,-293.02 869.26,-380.11 100.76,-29.66 249.2,-53.43 330.88,-93.76l3.07 -1329.75c-449.63,-18.13 -3296.1,1494.27 -3480.53,1805.45z"/>
  <path class="fil4" d="M13432.32 16441.47l-1.36 -1706.74 -22.2 -33.08c-2.23,-5.27 -6.56,-12.76 -8.62,-19.05l-12.53 -98.19c-11.2,-309.96 27.4,-931.43 -3.43,-1179.66 -140.92,0.87 -1075.15,524.8 -1292.77,633.18l5.82 1639.93 1335.09 763.61z"/>
  <path class="fil5" d="M9730.76 16227.28l33.13 -561.8c60.64,-29.24 110.91,-32.26 181.26,-63.39l149.65 -95.88c201.6,-133.4 12.02,-33.36 146.05,-174.19 3.89,-4.08 9.38,-10.17 13.56,-14.11l227.67 -128.24c24.27,-13.75 52.67,-22.9 78.1,-32.63 144.67,-55.35 80.59,-61.77 155.2,-75.03 59.88,-10.64 31.99,21.97 197.25,-10.68l17.18 -3.2c66.51,-7.24 -53.93,45.04 14.18,2.14l37.83 -596.92c8.74,-112.11 42.04,-765.76 123.58,-865.99 -29.12,-72.49 -13.76,-41.79 -65.93,-85.99 -129,-109.28 -1192.03,-698.81 -1276.65,-707.58 7.41,258.19 -33.05,577.55 -45.88,845 -51.2,1066.7 14.32,1596.72 13.82,2568.49z"/>
  <path class="fil6" d="M13759.2 14688.86c79.47,94.71 1608.71,975.38 1812.77,1082.04 151.15,-211.69 214.12,-772.56 207.61,-1081.6 -11.86,-563.59 -135.96,-653.97 -226.41,-1036.8 -236.43,82.42 -673.26,372.79 -913.16,511.79 -154.37,89.46 -286.54,174.08 -441.86,264.46 -110.27,64.17 -363.32,195.95 -438.95,260.11z"/>
  <path class="fil7" d="M15734.81 13550.49c136.53,398.01 242.58,736.17 229.75,1210.48l1308.43 -9.62c1.45,-922.82 -158.34,-1515.94 -165.96,-2005.9 -87.49,4.69 -581.83,305.26 -686.93,375 -172.48,114.44 -576.65,314.41 -685.29,430.04z"/>
  <path class="fil8" d="M13594.73 14521.93c34.75,-9.66 1737.67,-969.72 1828.3,-1079.98 -82,-145.29 -596.66,-554 -769.83,-655.98 -264.97,-156 -697.5,-319.61 -1063.98,-361.46l5.51 2097.42z"/>
  <path class="fil9" d="M17161.36 16739.36c99.85,-390.93 114.3,-1359.39 118.5,-1807.63l-1317.66 12.61c-55.33,365 -128.41,617.05 -205.29,967.22 160.51,133.08 508.08,310.56 713.52,431.32 215.63,126.74 480.38,302.01 690.93,396.48z"/>
  <path class="fil4" d="M9730.76 16227.28l44.67 602.87c91.37,-3.87 579.14,-314.92 673.24,-369.72 126.33,-73.57 570.11,-362.41 674.38,-372.8 9.5,-212.42 -81.52,-540.37 -107.68,-773.49 -32.64,-291.05 -45.35,-545.05 -33.55,-840.79l-37.83 596.92c-68.11,42.9 52.33,-9.38 -14.18,-2.14l-17.18 3.2c-165.26,32.65 -137.37,0.04 -197.25,10.68 -74.61,13.26 -10.53,19.68 -155.2,75.03 -25.43,9.73 -53.83,18.88 -78.1,32.63l-227.67 128.24c-4.18,3.94 -9.67,10.03 -13.56,14.11 -134.03,140.83 55.55,40.79 -146.05,174.19l-149.65 95.88c-70.35,31.13 -120.62,34.15 -181.26,63.39l-33.13 561.8z"/>
  <path class="fil0" d="M13432.32 16441.47c126.84,-16.07 647.85,-303.12 792.38,-383.02l677.1 -347.88c95.14,-64.59 31.61,-2.87 82.59,-92.3 -243.28,-148.61 -504.27,-291.06 -768.12,-445.99 -200.83,-117.93 -574.24,-367.81 -785.31,-437.55l1.36 1706.74z"/>
  <path class="fil10" d="M10981.82 14473.35c-11.8,295.74 0.91,549.74 33.55,840.79 26.16,233.12 117.18,561.07 107.68,773.49 6.99,-3.27 15.65,-8.36 20.44,-10.9l129.63 -66.3c39.58,-17.8 91.99,-38.66 134.23,-54.85 101.63,-38.96 207.47,-77.65 294.72,-107.61 -39.64,-496.74 -87.58,-891.07 -59.49,-1402.79 18.74,-341.48 10.52,-322.28 -175.75,-507.42 -121.89,-121.12 -222.13,-233.2 -361.43,-330.4 -81.54,100.23 -114.84,753.88 -123.58,865.99z"/>
  <path class="fil0" d="M11214.77 16222.25l123.54 0.26c35.77,90.08 361.3,276.89 440.18,332.05l346.33 224.14c40.98,23.86 83.01,54.28 133.86,81.46 135.82,72.57 349.43,190.41 523.86,261.57 162.68,66.35 425.98,145.49 561.55,243.28l69.8 -449.32 -1557.1 -847.58c-0.63,-0.02 -620.79,147.51 -642.02,154.14z"/>
  <path class="fil10" d="M13563.84 17350.75c389.14,-113.49 825.79,-320.58 1143.08,-513.33 229.51,-139.42 805.48,-552.59 919.46,-712.08l0 -50.81c-195.63,84.43 -350.48,-157.98 -589.51,4.24l-1181.32 664.17c-48.82,23.95 -76.13,37.99 -124.05,64.29l-111.65 66.66 -56.01 476.86z"/>
  <path class="fil9" d="M13563.84 17350.75l-2 74.86c449.41,-46.99 1302.15,-586.92 1685.27,-889.6l350.05 -305.96c134.5,-136.85 79.92,-71.71 29.22,-104.71 -113.98,159.49 -689.95,572.66 -919.46,712.08 -317.29,192.75 -753.94,399.84 -1143.08,513.33z"/>
 </g>
</svg>
