<?xml version="1.0" encoding="UTF-8"?>
<svg version="1.1" xmlns="http://www.w3.org/2000/svg" width="198" height="208">
<path d="M0 0 C65.34 0 130.68 0 198 0 C198 68.64 198 137.28 198 208 C132.66 208 67.32 208 0 208 C0 139.36 0 70.72 0 0 Z " fill="#FAFAFC" transform="translate(0,0)"/>
<path d="M0 0 C-3.22665727 3.22665727 -7.59758514 3.65164834 -11.93359375 4.8046875 C-15.19401874 6.07563023 -16.26503415 7.02754954 -18 10 C-20.31 9.67 -22.62 9.34 -25 9 C-25 9.66 -25 10.32 -25 11 C-26.5 12.625 -26.5 12.625 -28 14 C-27.34 14.33 -26.68 14.66 -26 15 C-26 15.66 -26 16.32 -26 17 C-23.69 16.67 -21.38 16.34 -19 16 C-19 15.34 -19 14.68 -19 14 C-17.68 14 -16.36 14 -15 14 C-14.67 13.34 -14.34 12.68 -14 12 C-13.38125 12.350625 -12.7625 12.70125 -12.125 13.0625 C-11.42375 13.371875 -10.7225 13.68125 -10 14 C-9.34 13.67 -8.68 13.34 -8 13 C-7.505 14.98 -7.505 14.98 -7 17 C-6.01 16.67 -5.02 16.34 -4 16 C-4 16.66 -4 17.32 -4 18 C-3.34 18 -2.68 18 -2 18 C-2 17.34 -2 16.68 -2 16 C-1.34 16 -0.68 16 0 16 C0 15.34 0 14.68 0 14 C1.98 13.34 3.96 12.68 6 12 C4.948125 12.928125 4.948125 12.928125 3.875 13.875 C-2.55853749 20.25339288 -6.2522382 27.89052006 -6.375 36.8125 C-6.40828923 50.58845015 -0.22687151 60.88464784 6.90673828 72.22558594 C8.68206666 75.10702557 10.33762734 78.05220993 12 81 C10.77667969 81.21914062 9.55335937 81.43828125 8.29296875 81.6640625 C-10.99968552 85.24414267 -32.80968096 89.74429706 -48 103 C-48.5259375 103.45632812 -49.051875 103.91265625 -49.59375 104.3828125 C-51.16441448 105.79225749 -51.16441448 105.79225749 -53 108 C-53 108.99 -53 109.98 -53 111 C-49.42326706 110.31202448 -46.62239527 108.83428738 -43.44140625 107.0859375 C-25.81789537 97.56422407 -8.57754431 89.82040487 11.359375 86.60546875 C12.23078125 86.40566406 13.1021875 86.20585938 14 86 C14.33 85.34 14.66 84.68 15 84 C15.55429688 84.63808594 16.10859375 85.27617188 16.6796875 85.93359375 C17.40414062 86.75988281 18.12859375 87.58617188 18.875 88.4375 C19.59429687 89.26121094 20.31359375 90.08492188 21.0546875 90.93359375 C22.83238745 93.05982155 22.83238745 93.05982155 25 94 C25.31517578 93.00419922 25.31517578 93.00419922 25.63671875 91.98828125 C27.48489465 87.93712203 30.08782047 84.68971806 32.8125 81.1875 C36.86134012 75.95753965 40.59831962 70.67641789 44 65 C44.33 65.66 44.66 66.32 45 67 C43.5625 69.625 43.5625 69.625 42 72 C42.66 72.33 43.32 72.66 44 73 C43.67 73.66 43.34 74.32 43 75 C56.53 75.66 70.06 76.32 84 77 C84 77.33 84 77.66 84 78 C83.41784225 78.00364563 82.83568451 78.00729126 82.23588562 78.01104736 C76.18492494 78.05280891 70.13472729 78.12210901 64.08422852 78.20751953 C61.82519151 78.2357717 59.56605486 78.25696499 57.30688477 78.27099609 C54.06214224 78.29236652 50.81860308 78.33898732 47.57421875 78.390625 C46.56163498 78.39185364 45.54905121 78.39308228 44.50578308 78.39434814 C43.56503433 78.41406677 42.62428558 78.4337854 41.6550293 78.45410156 C40.82674118 78.46298401 39.99845306 78.47186646 39.14506531 78.48101807 C36.26719252 79.17729709 35.51387508 80.53850335 34 83 C35.98 83.99 35.98 83.99 38 85 C36.515 85.495 36.515 85.495 35 86 C34.67 87.98 34.34 89.96 34 92 C34.99 92 35.98 92 37 92 C37.33 93.32 37.66 94.64 38 96 C42.29 96 46.58 96 51 96 C51 96.33 51 96.66 51 97 C50.25951416 97.16604736 49.51902832 97.33209473 48.75610352 97.50317383 C45.35714639 98.2681979 41.95983279 99.04029593 38.5625 99.8125 C37.39783203 100.07353516 36.23316406 100.33457031 35.03320312 100.60351562 C29.19705634 101.93514348 23.52336226 103.34270624 17.91918945 105.46191406 C10.5516195 107.52757036 2.72132601 103.70109363 -4 101 C-4 101.99 -4 102.98 -4 104 C-5.65 104 -7.3 104 -9 104 C-4.38 105.65 0.24 107.3 5 109 C3.60643954 111.78712092 1.83494327 112.26463329 -0.9375 113.625 C-1.83339844 114.07101563 -2.72929688 114.51703125 -3.65234375 114.9765625 C-6 116 -6 116 -8 116 C-8.33 117.65 -8.66 119.3 -9 121 C-8.46632812 120.74605469 -7.93265625 120.49210937 -7.3828125 120.23046875 C-2.61038521 118.02590459 2.07769463 116.32361549 7.1328125 114.90234375 C10.48683254 113.84678703 13.68061712 112.51297559 16.9375 111.1875 C36.62012264 103.51907107 58.87677943 99.72059232 80 100 C76.21434962 103.1246638 71.956375 105.2450058 67.625 107.5 C66.8825 107.89058594 66.14 108.28117187 65.375 108.68359375 C63.91992784 109.44712101 62.46213555 110.20549041 61.00146484 110.95825195 C59.26165247 111.86381177 57.54277344 112.80937091 55.828125 113.76171875 C49.91134815 116.35235171 42.8170244 115.68196503 36.6875 113.9375 C32.62429235 112.90448111 30.07529508 113.1698473 26 114 C24.0007944 114.33806518 22.00090145 114.67212119 20 115 C20.59538574 115.17128418 21.19077148 115.34256836 21.80419922 115.51904297 C24.49646085 116.29764861 27.18571111 117.08619084 29.875 117.875 C30.81214844 118.14441406 31.74929687 118.41382812 32.71484375 118.69140625 C33.61074219 118.95566406 34.50664063 119.21992187 35.4296875 119.4921875 C36.25710449 119.73308105 37.08452148 119.97397461 37.93701172 120.22216797 C40 121 40 121 42 123 C38.7 125.31 35.4 127.62 32 130 C33.32 129.67 34.64 129.34 36 129 C35.34 132.63 34.68 136.26 34 140 C35.37671875 138.91332031 35.37671875 138.91332031 36.78125 137.8046875 C38.02079497 136.82807631 39.2603805 135.85151659 40.5 134.875 C41.10070312 134.400625 41.70140625 133.92625 42.3203125 133.4375 C44.20816917 131.95131496 46.10268759 130.47409158 48 129 C48.94818604 128.2577417 48.94818604 128.2577417 49.91552734 127.50048828 C54.93286935 123.64302218 60.1773789 120.33870074 65.625 117.125 C66.49874268 116.60397705 67.37248535 116.0829541 68.27270508 115.54614258 C72.79615809 112.85796888 77.34547761 110.22663267 81.94067383 107.66333008 C88.0756042 104.23617191 93.69504576 100.61668673 99 96 C99.63550781 95.45859375 100.27101562 94.9171875 100.92578125 94.359375 C108.32823561 87.57511276 112.57864303 78.13446171 113.265625 68.1328125 C113.27352209 66.79688819 113.26803429 65.46082592 113.25 64.125 C113.24613281 63.42826172 113.24226562 62.73152344 113.23828125 62.01367188 C113.14997885 56.74005612 112.44448483 52.0556969 111 47 C114.22325167 50.53636755 115.09607939 54.45628658 116.125 59 C116.29386719 59.7115625 116.46273437 60.423125 116.63671875 61.15625 C117.09788337 63.10258258 117.54934183 65.05120793 118 67 C118.1959375 67.67675781 118.391875 68.35351562 118.59375 69.05078125 C121.89219289 84.87696395 116.63929201 101.39390677 108.21484375 114.72265625 C94.97671869 134.31134571 75.65651292 146.67823337 52.43164062 151.53735352 C44.51286068 153.01521884 36.79371514 153.34969269 28.75 153.3125 C27.47165283 153.30686035 26.19330566 153.3012207 24.8762207 153.29541016 C-4.09221076 152.92347708 -29.92811587 141.68502423 -50.5546875 121.5 C-65.39563139 105.90951349 -69.64256167 87.77879528 -69.33984375 66.89453125 C-68.63224696 48.49407864 -58.02070023 33.24189199 -45 21 C-33.36509853 10.86235126 -15.99883794 -0.5638357 0 0 Z " fill="#384960" transform="translate(74,8)"/>
<path d="M0 0 C1.79401245 0.00845947 1.79401245 0.00845947 3.62426758 0.01708984 C29.90749165 0.37769646 54.42251313 10.4719162 72.8125 29.3125 C73.84310547 30.31216797 73.84310547 30.31216797 74.89453125 31.33203125 C84.85408853 41.63876264 87.29768487 54.27114161 87.109375 68.04296875 C86.88273036 73.28239154 85.66905378 79.45594622 81.8125 83.3125 C80.15511557 83.40596915 78.49375356 83.42994977 76.83374023 83.42602539 C75.77271591 83.42594986 74.71169159 83.42587433 73.61851501 83.42579651 C72.464366 83.42063522 71.31021698 83.41547394 70.12109375 83.41015625 C68.94611832 83.4087413 67.77114288 83.40732635 66.56056213 83.40586853 C62.79034936 83.40024992 59.02019496 83.38769426 55.25 83.375 C52.70117273 83.3699874 50.15234453 83.36542408 47.60351562 83.36132812 C41.33982367 83.35027444 35.07616601 83.33351821 28.8125 83.3125 C29.6876123 83.33231934 30.56272461 83.35213867 31.46435547 83.37255859 C63.60605134 84.13713304 63.60605134 84.13713304 78.8125 86.3125 C77.37644807 89.70068502 75.60783421 91.6311598 72.8125 94 C72.11125 94.60199219 71.41 95.20398438 70.6875 95.82421875 C67.68215276 98.20971313 65.77250269 98.46727377 61.99560547 98.60961914 C60.49427567 98.6695681 60.49427567 98.6695681 58.96261597 98.73072815 C57.33756638 98.78860756 57.33756638 98.78860756 55.6796875 98.84765625 C54.57271515 98.89063339 53.4657428 98.93361053 52.32522583 98.97789001 C48.77946622 99.11455871 45.2335042 99.24484722 41.6875 99.375 C39.28774442 99.46637767 36.88800455 99.55816918 34.48828125 99.65039062 C28.59652836 99.8759012 22.70459672 100.09616992 16.8125 100.3125 C16.4825 98.6625 16.1525 97.0125 15.8125 95.3125 C14.4925 95.6425 13.1725 95.9725 11.8125 96.3125 C12.31081724 92.62495243 12.91317643 90.70759338 15.8125 88.3125 C13.8325 87.3225 13.8325 87.3225 11.8125 86.3125 C13.140625 83.86328125 13.140625 83.86328125 15.8125 81.3125 C19.38269537 80.52611669 22.91686938 80.52184466 26.5625 80.5 C27.54605469 80.47486328 28.52960938 80.44972656 29.54296875 80.42382812 C31.96571643 80.36502357 34.38915159 80.33588319 36.8125 80.3125 C31.5325 79.9825 26.2525 79.6525 20.8125 79.3125 C20.8125 73.3125 20.8125 73.3125 21.8125 71.3125 C21.44487549 71.85140869 21.07725098 72.39031738 20.69848633 72.94555664 C19.008104 75.42257093 17.31655996 77.89878979 15.625 80.375 C15.04685547 81.22255859 14.46871094 82.07011719 13.87304688 82.94335938 C10.57253655 87.77291968 7.23200489 92.56640752 3.8125 97.3125 C0.60206118 95.93061547 -1.23686365 94.38828097 -3.4375 91.6875 C-4.21867187 90.74003906 -4.21867187 90.74003906 -5.015625 89.7734375 C-5.40234375 89.29132813 -5.7890625 88.80921875 -6.1875 88.3125 C-7.02410156 88.76882812 -7.86070313 89.22515625 -8.72265625 89.6953125 C-12.3563206 91.39129564 -15.7190846 92.2985404 -19.625 93.1875 C-37.33863196 97.45491202 -54.40123633 103.91445626 -69.38305664 114.4921875 C-71.69427678 115.54288425 -72.84554084 115.14898314 -75.1875 114.3125 C-74.30588986 108.81468122 -70.26007257 105.78044149 -66.1875 102.3125 C-63.31941074 100.31802414 -60.3456418 98.7978361 -57.1875 97.3125 C-55.74697266 96.60673828 -55.74697266 96.60673828 -54.27734375 95.88671875 C-40.34679652 89.46106705 -25.26944631 85.84948 -10.1875 83.3125 C-10.52483154 82.79453857 -10.86216309 82.27657715 -11.2097168 81.74291992 C-30.77273126 51.58341209 -30.77273126 51.58341209 -28.1875 32.3125 C-26.05018131 26.21383169 -22.84552033 21.73761931 -18.1875 17.3125 C-19.1775 17.3125 -20.1675 17.3125 -21.1875 17.3125 C-21.1875 17.9725 -21.1875 18.6325 -21.1875 19.3125 C-21.8475 19.3125 -22.5075 19.3125 -23.1875 19.3125 C-23.1875 19.9725 -23.1875 20.6325 -23.1875 21.3125 C-25.5625 21 -25.5625 21 -28.1875 20.3125 C-28.8475 19.3225 -29.5075 18.3325 -30.1875 17.3125 C-31.5075 17.3125 -32.8275 17.3125 -34.1875 17.3125 C-36.1875 17.3125 -38.1875 17.3125 -40.1875 17.3125 C-40.1875 17.9725 -40.1875 18.6325 -40.1875 19.3125 C-42.4622813 20.69361722 -43.68921361 21.36944702 -46.375 21.0625 C-48.1875 20.3125 -48.1875 20.3125 -49.1875 18.3125 C-49.1875 17.3225 -49.1875 16.3325 -49.1875 15.3125 C-48.1975 14.9825 -47.2075 14.6525 -46.1875 14.3125 C-46.1875 13.6525 -46.1875 12.9925 -46.1875 12.3125 C-43.8775 12.6425 -41.5675 12.9725 -39.1875 13.3125 C-38.84332031 12.38824219 -38.84332031 12.38824219 -38.4921875 11.4453125 C-36.79417065 8.6695125 -35.34772313 8.25928502 -32.3125 7.1875 C-29.15809293 6.048147 -26.15867346 4.8740935 -23.1875 3.3125 C-23.1875 2.9825 -23.1875 2.6525 -23.1875 2.3125 C-15.42199658 0.39119502 -7.98124194 -0.03930816 0 0 Z " fill="#798A9B" transform="translate(95.1875,4.6875)"/>
<path d="M0 0 C3.22325167 3.53636755 4.09607939 7.45628658 5.125 12 C5.29386719 12.7115625 5.46273437 13.423125 5.63671875 14.15625 C6.09788337 16.10258258 6.54934183 18.05120793 7 20 C7.1959375 20.67675781 7.391875 21.35351562 7.59375 22.05078125 C10.89219289 37.87696395 5.63929201 54.39390677 -2.78515625 67.72265625 C-16.02328131 87.31134571 -35.34348708 99.67823337 -58.56835938 104.53735352 C-66.48725298 106.01524006 -74.20620993 106.34916655 -82.25 106.3125 C-83.52689697 106.30758545 -84.80379395 106.3026709 -86.11938477 106.29760742 C-98.71942033 106.14129933 -118.80158611 105.59252649 -128.69140625 96.43359375 C-129.33916016 95.72396484 -129.33916016 95.72396484 -130 95 C-131.03125 94.525625 -132.0625 94.05125 -133.125 93.5625 C-134.07375 93.046875 -135.0225 92.53125 -136 92 C-136.11988281 91.37480469 -136.23976563 90.74960938 -136.36328125 90.10546875 C-137.31492794 86.9586125 -139.25416055 86.31413843 -142.0625 84.75 C-142.98160156 84.22921875 -143.90070313 83.7084375 -144.84765625 83.171875 C-145.55792969 82.78515625 -146.26820313 82.3984375 -147 82 C-142.44518162 76.44088982 -136.52542821 74.12327306 -130.0625 71.25 C-128.99064453 70.75628906 -127.91878906 70.26257813 -126.81445312 69.75390625 C-121.82388056 67.49810565 -117.46226629 65.731729 -112 65 C-114.17424117 67.50037734 -115.73045798 68.43628586 -119 69 C-119.33 70.65 -119.66 72.3 -120 74 C-119.46632813 73.74605469 -118.93265625 73.49210937 -118.3828125 73.23046875 C-113.61038521 71.02590459 -108.92230537 69.32361549 -103.8671875 67.90234375 C-100.51316746 66.84678703 -97.31938288 65.51297559 -94.0625 64.1875 C-74.37987736 56.51907107 -52.12322057 52.72059232 -31 53 C-34.78565038 56.1246638 -39.043625 58.2450058 -43.375 60.5 C-44.1175 60.89058594 -44.86 61.28117187 -45.625 61.68359375 C-47.08007216 62.44712101 -48.53786445 63.20549041 -49.99853516 63.95825195 C-51.73834753 64.86381177 -53.45722656 65.80937091 -55.171875 66.76171875 C-61.08865185 69.35235171 -68.1829756 68.68196503 -74.3125 66.9375 C-78.37570765 65.90448111 -80.92470492 66.1698473 -85 67 C-86.9992056 67.33806518 -88.99909855 67.67212119 -91 68 C-90.40461426 68.17128418 -89.80922852 68.34256836 -89.19580078 68.51904297 C-86.50353915 69.29764861 -83.81428889 70.08619084 -81.125 70.875 C-80.18785156 71.14441406 -79.25070313 71.41382812 -78.28515625 71.69140625 C-77.38925781 71.95566406 -76.49335937 72.21992187 -75.5703125 72.4921875 C-74.74289551 72.73308105 -73.91547852 72.97397461 -73.06298828 73.22216797 C-71 74 -71 74 -69 76 C-72.3 78.31 -75.6 80.62 -79 83 C-77.68 82.67 -76.36 82.34 -75 82 C-75.66 85.63 -76.32 89.26 -77 93 C-75.62328125 91.91332031 -75.62328125 91.91332031 -74.21875 90.8046875 C-72.97920503 89.82807631 -71.7396195 88.85151659 -70.5 87.875 C-69.89929688 87.400625 -69.29859375 86.92625 -68.6796875 86.4375 C-66.79183083 84.95131496 -64.89731241 83.47409158 -63 82 C-62.05181396 81.2577417 -62.05181396 81.2577417 -61.08447266 80.50048828 C-56.06713065 76.64302218 -50.8226211 73.33870074 -45.375 70.125 C-44.50125732 69.60397705 -43.62751465 69.0829541 -42.72729492 68.54614258 C-38.20384191 65.85796888 -33.65452239 63.22663267 -29.05932617 60.66333008 C-22.9243958 57.23617191 -17.30495424 53.61668673 -12 49 C-11.36449219 48.45859375 -10.72898438 47.9171875 -10.07421875 47.359375 C-2.67176439 40.57511276 1.57864303 31.13446171 2.265625 21.1328125 C2.27352209 19.79688819 2.26803429 18.46082592 2.25 17.125 C2.24613281 16.42826172 2.24226562 15.73152344 2.23828125 15.01367188 C2.14997885 9.74005612 1.44448483 5.0556969 0 0 Z M-136 86 C-135 88 -135 88 -135 88 Z " fill="#41536D" transform="translate(185,55)"/>
<path d="M0 0 C7.31202505 5.26092877 12.99138506 12.05253343 15 21 C17.50721871 43.56496837 -1.72747713 64.90531265 -14 82 C-17.21043882 80.61811547 -19.04936365 79.07578097 -21.25 76.375 C-22.03117187 75.42753906 -22.03117187 75.42753906 -22.828125 74.4609375 C-23.21484375 73.97882813 -23.6015625 73.49671875 -24 73 C-24.83660156 73.45632812 -25.67320313 73.91265625 -26.53515625 74.3828125 C-30.1688206 76.07879564 -33.5315846 76.9860404 -37.4375 77.875 C-55.15113196 82.14241202 -72.21373633 88.60195626 -87.19555664 99.1796875 C-89.50677678 100.23038425 -90.65804084 99.83648314 -93 99 C-92.11838986 93.50218122 -88.07257257 90.46794149 -84 87 C-81.13191074 85.00552414 -78.1581418 83.4853361 -75 82 C-73.55947266 81.29423828 -73.55947266 81.29423828 -72.08984375 80.57421875 C-58.15929652 74.14856705 -43.08194631 70.53698 -28 68 C-28.33733154 67.48203857 -28.67466309 66.96407715 -29.0222168 66.43041992 C-48.42925485 36.51137461 -48.42925485 36.51137461 -46 17 C-42.98381769 7.22618787 -36.22361251 2.23863975 -27.875 -2.9375 C-19.09897718 -6.21825619 -7.76138248 -5.16917222 0 0 Z " fill="#F4F4F7" transform="translate(113,20)"/>
<path d="M0 0 C-3.22665727 3.22665727 -7.59758514 3.65164834 -11.93359375 4.8046875 C-15.19401874 6.07563023 -16.26503415 7.02754954 -18 10 C-20.31 9.67 -22.62 9.34 -25 9 C-25 9.66 -25 10.32 -25 11 C-26.5 12.625 -26.5 12.625 -28 14 C-27.34 14.33 -26.68 14.66 -26 15 C-26 15.66 -26 16.32 -26 17 C-22.535 16.505 -22.535 16.505 -19 16 C-19 15.34 -19 14.68 -19 14 C-17.68 14 -16.36 14 -15 14 C-14.67 13.34 -14.34 12.68 -14 12 C-13.38125 12.350625 -12.7625 12.70125 -12.125 13.0625 C-11.42375 13.371875 -10.7225 13.68125 -10 14 C-9.34 13.67 -8.68 13.34 -8 13 C-7.505 14.98 -7.505 14.98 -7 17 C-6.01 16.67 -5.02 16.34 -4 16 C-4 16.66 -4 17.32 -4 18 C-3.34 18 -2.68 18 -2 18 C-2 17.34 -2 16.68 -2 16 C-1.34 16 -0.68 16 0 16 C0 15.34 0 14.68 0 14 C1.98 13.34 3.96 12.68 6 12 C4.948125 12.928125 4.948125 12.928125 3.875 13.875 C-2.55853749 20.25339288 -6.2522382 27.89052006 -6.375 36.8125 C-6.40828923 50.58845015 -0.22687151 60.88464784 6.90673828 72.22558594 C8.68206666 75.10702557 10.33762734 78.05220993 12 81 C10.77667969 81.21914062 9.55335937 81.43828125 8.29296875 81.6640625 C-3.15257936 83.79178989 -14.1001235 86.64530327 -25.11914062 90.39916992 C-30.48142957 92.11212334 -30.48142957 92.11212334 -33.3125 91.5 C-42.77071174 86.2209981 -48.06092616 76.40297819 -51.375 66.4375 C-54.35336556 55.66762962 -53.20600192 48.04354251 -48 38 C-45.73495694 34.89030042 -43.36178601 32.00668817 -40.79296875 29.14453125 C-38.78619312 27.210155 -38.78619312 27.210155 -39 25 C-40.32 24.67 -41.64 24.34 -43 24 C-43.721875 25.0725 -44.44375 26.145 -45.1875 27.25 C-47.43796996 30.41994768 -49.81667916 32.7261994 -53 35 C-53.66 34.67 -54.32 34.34 -55 34 C-49.41066427 27.63755989 -44.00541774 21.54188527 -37.0703125 16.59765625 C-34.85242549 14.97476264 -34.85242549 14.97476264 -32.6953125 12.53515625 C-29.65507621 9.67557168 -26.5235004 8.029927 -22.75 6.375 C-22.08685791 6.07650146 -21.42371582 5.77800293 -20.74047852 5.47045898 C-7.16919675 -0.55147667 -7.16919675 -0.55147667 0 0 Z " fill="#4B5B71" transform="translate(74,8)"/>
<path d="M0 0 C3.22325167 3.53636755 4.09607939 7.45628658 5.125 12 C5.37830078 13.06734375 5.37830078 13.06734375 5.63671875 14.15625 C6.09788337 16.10258258 6.54934183 18.05120793 7 20 C7.29390625 21.01513672 7.29390625 21.01513672 7.59375 22.05078125 C9.48492707 31.12479429 8.30757916 40.4663081 5.75 49.25 C5.54552246 49.96438232 5.34104492 50.67876465 5.13037109 51.41479492 C3.80040998 55.61125951 2.26725702 58.09503963 -1 61 C-1.5775 62.093125 -2.155 63.18625 -2.75 64.3125 C-4.8434139 68.17662763 -7.69945455 70.59938671 -11.0546875 73.37890625 C-13.1655696 75.08823699 -13.1655696 75.08823699 -15.5625 77.5625 C-25.44141381 87.44141381 -38.42068465 94.39151061 -52 98 C-53.32 98 -54.64 98 -56 98 C-55.67 99.32 -55.34 100.64 -55 102 C-64.65653116 104.38222795 -74.13325025 104.19538118 -84 104 C-83.505 103.01 -83.505 103.01 -83 102 C-85.64 101.34 -88.28 100.68 -91 100 C-91.74609375 97.29296875 -91.74609375 97.29296875 -92 94 C-87.89409618 87.67468871 -82.15151061 83.95041199 -75 82 C-75.66 85.63 -76.32 89.26 -77 93 C-75.62328125 91.91332031 -75.62328125 91.91332031 -74.21875 90.8046875 C-72.97920503 89.82807631 -71.7396195 88.85151659 -70.5 87.875 C-69.89929688 87.400625 -69.29859375 86.92625 -68.6796875 86.4375 C-66.79183083 84.95131496 -64.89731241 83.47409158 -63 82 C-62.05181396 81.2577417 -62.05181396 81.2577417 -61.08447266 80.50048828 C-56.06713065 76.64302218 -50.8226211 73.33870074 -45.375 70.125 C-44.06438599 69.34346558 -44.06438599 69.34346558 -42.72729492 68.54614258 C-38.20384191 65.85796888 -33.65452239 63.22663267 -29.05932617 60.66333008 C-22.9243958 57.23617191 -17.30495424 53.61668673 -12 49 C-11.36449219 48.45859375 -10.72898437 47.9171875 -10.07421875 47.359375 C-2.67176439 40.57511276 1.57864303 31.13446171 2.265625 21.1328125 C2.27352209 19.79688819 2.26803429 18.46082592 2.25 17.125 C2.24613281 16.42826172 2.24226563 15.73152344 2.23828125 15.01367188 C2.14997885 9.74005612 1.44448483 5.0556969 0 0 Z " fill="#5E7388" transform="translate(185,55)"/>
<path d="M0 0 C6.79718109 0.38127321 13.00627168 1.38212492 19.5390625 3.30078125 C22.33466538 4.09508747 25.12096124 4.61094071 28 5 C28 5.66 28 6.32 28 7 C29.32 7 30.64 7 32 7 C32 7.66 32 8.32 32 9 C32.9075 9.268125 33.815 9.53625 34.75 9.8125 C37.71471963 10.89576294 39.6169754 11.98359457 42 14 C41.505 11.03 41.505 11.03 41 8 C41.99 7.34 42.98 6.68 44 6 C45.64936048 7.28715972 47.29439047 8.57987019 48.9375 9.875 C49.85402344 10.59429687 50.77054688 11.31359375 51.71484375 12.0546875 C54 14 54 14 55 16 C54.34 16 53.68 16 53 16 C53.66 17.32 54.32 18.64 55 20 C54.34 20.99 53.68 21.98 53 23 C53.38671875 23.53367187 53.7734375 24.06734375 54.171875 24.6171875 C59.75179039 32.60033377 63.27641984 40.23166788 64 50 C58.55696203 52.91139241 58.55696203 52.91139241 55.25 53.4375 C52.81223976 53.77271129 52.81223976 53.77271129 51.6875 56.0625 C51.460625 56.701875 51.23375 57.34125 51 58 C49.35 57.34 47.7 56.68 46 56 C46.50603992 58.16874252 46.99983813 59.99967627 48 62 C48 63.98 48 65.96 48 68 C44.04 68 40.08 68 36 68 C36.495 66.02 36.495 66.02 37 64 C34.03 64.99 34.03 64.99 31 66 C28.35187637 60.2364368 29.1980251 55.09067424 30 49 C27.69 49 25.38 49 23 49 C23.185625 48.21625 23.37125 47.4325 23.5625 46.625 C24.25962266 44.02910225 24.25962266 44.02910225 23 42 C22.01 42 21.02 42 20 42 C19.38905558 37.79975711 18.97134568 33.9839976 19.25 29.75 C19.31694859 22.01074337 15.83248301 14.45667826 10.5 8.9375 C7.86303855 6.56019558 5.07822213 4.77230971 2 3 C2 2.34 2 1.68 2 1 C1.34 0.67 0.68 0.34 0 0 Z " fill="#9BAAB7" transform="translate(108,16)"/>
<path d="M0 0 C5.18283726 4.48598519 5.77378053 11.33922816 6.328125 17.859375 C6.82046877 30.18284363 4.38769682 40.69337136 -4 50 C-4.84498047 50.98226562 -4.84498047 50.98226562 -5.70703125 51.984375 C-12.55895015 59.42772269 -21.34347827 63.93762039 -30.05078125 68.85546875 C-43.41988869 76.41013308 -55.93015724 84.15097617 -67.66015625 94.15234375 C-69.72630256 95.78387498 -71.60224435 96.9423295 -74 98 C-74.125 91.375 -74.125 91.375 -73 88 C-74.98 88.495 -74.98 88.495 -77 89 C-73.97727468 85.74475735 -70.74281699 83.38179263 -67 81 C-72.83840316 78.21980802 -78.83695732 76.60273434 -85.0859375 74.96484375 C-86.04757813 74.64644531 -87.00921875 74.32804687 -88 74 C-88.495 73.01 -88.495 73.01 -89 72 C-82.1502712 70.04062131 -76.14027228 69.56812227 -69.21557617 71.49707031 C-59.04202751 73.80643783 -51.65500657 71.11157689 -42.875 66.0625 C-41.33585937 65.21655273 -41.33585937 65.21655273 -39.765625 64.35351562 C-37.88679779 63.31867346 -36.01349161 62.27369148 -34.14794922 61.21508789 C-32.78366568 60.44331713 -31.40196995 59.70098498 -30 59 C-54.53668404 59.97817385 -78.45729223 64.43797824 -101.06518555 74.21166992 C-106.20768542 76.30695473 -111.50869612 78.11430583 -117 79 C-116.87890625 76.70703125 -116.87890625 76.70703125 -116 74 C-113.27734375 72.19921875 -113.27734375 72.19921875 -109.9375 70.6875 C-108.83277344 70.17574219 -107.72804688 69.66398437 -106.58984375 69.13671875 C-105.73519531 68.76160156 -104.88054687 68.38648437 -104 68 C-104.92683594 67.66226563 -105.85367188 67.32453125 -106.80859375 66.9765625 C-108.60490234 66.30753906 -108.60490234 66.30753906 -110.4375 65.625 C-112.22994141 64.96371094 -112.22994141 64.96371094 -114.05859375 64.2890625 C-117 63 -117 63 -118 61 C-116.02 61.33 -114.04 61.66 -112 62 C-112 61.01 -112 60.02 -112 59 C-103.58052812 60.72424914 -103.58052812 60.72424914 -100.5 62.1875 C-93.497211 64.46340643 -84.87457089 61.03379324 -78.0625 59.0625 C-65.21050177 55.38154441 -52.97182275 52.98953199 -39.5546875 52.9296875 C-38.45769531 52.919375 -37.36070312 52.9090625 -36.23046875 52.8984375 C-33.98571825 52.88275822 -31.74068303 52.89073619 -29.49609375 52.921875 C-22.34255126 52.80391317 -18.2420691 51.61795275 -12.80908203 46.89111328 C-11.02525953 45.0264049 -9.49384194 43.1018211 -8 41 C-8.6290625 41.01160156 -9.258125 41.02320313 -9.90625 41.03515625 C-10.7621875 41.04417969 -11.618125 41.05320313 -12.5 41.0625 C-13.75296875 41.07990234 -13.75296875 41.07990234 -15.03125 41.09765625 C-18 41 -18 41 -21.33984375 40.52734375 C-28.90378126 39.51911642 -36.61881836 39.63064348 -44.23950195 39.44775391 C-46.35898603 39.39555104 -48.47830367 39.33850906 -50.59765625 39.28125 C-51.85070557 39.25095703 -53.10375488 39.22066406 -54.39477539 39.18945312 C-57.98117298 39.00098935 -61.45479945 38.56308306 -65 38 C-65 37.67 -65 37.34 -65 37 C-45.2 37 -25.4 37 -5 37 C-1.19908741 27.66125922 -1.19908741 27.66125922 -0.6875 18.375 C-0.69716797 17.67632812 -0.70683594 16.97765625 -0.71679688 16.2578125 C-0.81915273 11.45153755 -1.34213943 6.76012934 -2 2 C-1.34 2 -0.68 2 0 2 C0 1.34 0 0.68 0 0 Z " fill="#F1F3F7" transform="translate(182,50)"/>
<path d="M0 0 C1.79401245 0.00845947 1.79401245 0.00845947 3.62426758 0.01708984 C30.0471498 0.37961258 54.23835118 10.53924085 72.8125 29.3125 C73.71613281 30.16070312 74.61976563 31.00890625 75.55078125 31.8828125 C78.8084142 35.38237674 79.20601973 37.61227794 79.8125 42.3125 C78.5625 44.3125 78.5625 44.3125 76.8125 45.3125 C76.1525 45.3125 75.4925 45.3125 74.8125 45.3125 C74.8125 46.3025 74.8125 47.2925 74.8125 48.3125 C74.1525 48.3125 73.4925 48.3125 72.8125 48.3125 C72.48636719 47.64863281 72.16023438 46.98476563 71.82421875 46.30078125 C69.63240529 41.87189564 67.45987248 37.49256181 64.8125 33.3125 C65.4725 32.3225 66.1325 31.3325 66.8125 30.3125 C66.68882919 26.94112616 66.17657211 25.66831338 63.74609375 23.29296875 C62.92238281 22.70128906 62.09867187 22.10960938 61.25 21.5 C60.42371094 20.89542969 59.59742188 20.29085938 58.74609375 19.66796875 C58.10800781 19.22066406 57.46992188 18.77335937 56.8125 18.3125 C56.1525 18.9725 55.4925 19.6325 54.8125 20.3125 C55.13448966 23.41176819 55.13448966 23.41176819 55.8125 26.3125 C54.45801302 25.56307863 53.10393078 24.81292574 51.75 24.0625 C50.61884766 23.43601562 50.61884766 23.43601562 49.46484375 22.796875 C47.44929933 21.66888254 45.46469339 20.48540077 43.49609375 19.27734375 C39.78102993 17.15459352 36.08895225 16.07494672 31.9375 15.125 C31.23858643 14.95846924 30.53967285 14.79193848 29.81958008 14.62036133 C20.80877966 12.3059129 20.80877966 12.3059129 11.8125 13.3125 C10.8225 12.9825 9.8325 12.6525 8.8125 12.3125 C-0.45882488 11.50829586 -7.33867077 12.05897743 -15.796875 16.21875 C-18.1875 17.3125 -18.1875 17.3125 -21.1875 17.3125 C-21.1875 17.9725 -21.1875 18.6325 -21.1875 19.3125 C-21.8475 19.3125 -22.5075 19.3125 -23.1875 19.3125 C-23.1875 19.9725 -23.1875 20.6325 -23.1875 21.3125 C-25.5625 21 -25.5625 21 -28.1875 20.3125 C-28.8475 19.3225 -29.5075 18.3325 -30.1875 17.3125 C-31.5075 17.3125 -32.8275 17.3125 -34.1875 17.3125 C-36.1875 17.3125 -38.1875 17.3125 -40.1875 17.3125 C-40.1875 17.9725 -40.1875 18.6325 -40.1875 19.3125 C-42.4622813 20.69361722 -43.68921361 21.36944702 -46.375 21.0625 C-48.1875 20.3125 -48.1875 20.3125 -49.1875 18.3125 C-49.1875 17.3225 -49.1875 16.3325 -49.1875 15.3125 C-48.1975 14.9825 -47.2075 14.6525 -46.1875 14.3125 C-46.1875 13.6525 -46.1875 12.9925 -46.1875 12.3125 C-43.8775 12.6425 -41.5675 12.9725 -39.1875 13.3125 C-38.95804688 12.69632813 -38.72859375 12.08015625 -38.4921875 11.4453125 C-36.79417065 8.6695125 -35.34772313 8.25928502 -32.3125 7.1875 C-29.15809293 6.048147 -26.15867346 4.8740935 -23.1875 3.3125 C-23.1875 2.9825 -23.1875 2.6525 -23.1875 2.3125 C-15.42199658 0.39119502 -7.98124194 -0.03930816 0 0 Z " fill="#8393A2" transform="translate(95.1875,4.6875)"/>
<path d="M0 0 C-3.22665727 3.22665727 -7.59758514 3.65164834 -11.93359375 4.8046875 C-15.19401874 6.07563023 -16.26503415 7.02754954 -18 10 C-20.31 9.67 -22.62 9.34 -25 9 C-25 9.66 -25 10.32 -25 11 C-26.5 12.625 -26.5 12.625 -28 14 C-27.34 14.33 -26.68 14.66 -26 15 C-26 15.66 -26 16.32 -26 17 C-22.535 16.505 -22.535 16.505 -19 16 C-19 15.34 -19 14.68 -19 14 C-17.68 14 -16.36 14 -15 14 C-14.67 13.34 -14.34 12.68 -14 12 C-13.38125 12.350625 -12.7625 12.70125 -12.125 13.0625 C-11.42375 13.371875 -10.7225 13.68125 -10 14 C-9.34 13.67 -8.68 13.34 -8 13 C-7.505 14.98 -7.505 14.98 -7 17 C-6.01 16.67 -5.02 16.34 -4 16 C-4 16.66 -4 17.32 -4 18 C-3.34 18 -2.68 18 -2 18 C-2 17.34 -2 16.68 -2 16 C-1.34 16 -0.68 16 0 16 C0 15.34 0 14.68 0 14 C1.98 13.34 3.96 12.68 6 12 C4.948125 12.928125 4.948125 12.928125 3.875 13.875 C-2.34267102 20.0393767 -6.01583821 27.53460038 -6.5625 36.125 C-6.64628906 37.40632813 -6.73007813 38.68765625 -6.81640625 40.0078125 C-6.90728516 41.48894531 -6.90728516 41.48894531 -7 43 C-7.66 42.01 -8.32 41.02 -9 40 C-9.66 40 -10.32 40 -11 40 C-11.33 39.34 -11.66 38.68 -12 38 C-12.99 38 -13.98 38 -15 38 C-15 37.34 -15 36.68 -15 36 C-15.99 36 -16.98 36 -18 36 C-18.66 36.99 -19.32 37.98 -20 39 C-22.4375 39.875 -22.4375 39.875 -25 40 C-26.8125 38.5625 -26.8125 38.5625 -28 37 C-27.62875 35.906875 -27.2575 34.81375 -26.875 33.6875 C-26.441875 31.8621875 -26.441875 31.8621875 -26 30 C-26.66 29.01 -27.32 28.02 -28 27 C-26.02 25.68 -24.04 24.36 -22 23 C-22.495 22.01 -22.495 22.01 -23 21 C-26.60561914 22.5299072 -28.9859199 24.68696932 -31.75 27.4375 C-32.54921875 28.21996094 -33.3484375 29.00242187 -34.171875 29.80859375 C-36.32029411 31.90830523 -36.32029411 31.90830523 -36 35 C-35.34 35.33 -34.68 35.66 -34 36 C-34 36.66 -34 37.32 -34 38 C-35.11375 38.20625 -36.2275 38.4125 -37.375 38.625 C-39.169375 39.305625 -39.169375 39.305625 -41 40 C-44.56866722 48.1246657 -45.20478398 57.81181497 -42.125 66.125 C-41.41837063 67.75074169 -40.71023094 69.37582848 -40 71 C-39.63609939 72.32531703 -39.2909286 73.65677647 -39 75 C-39.969375 75.12375 -40.93875 75.2475 -41.9375 75.375 C-43.4534375 75.684375 -43.4534375 75.684375 -45 76 C-45.495 76.99 -45.495 76.99 -46 78 C-51.2238484 68.27008389 -55.10244403 59.03215269 -52.1953125 47.92578125 C-49.63242973 40.45807112 -46.05403037 35.00636663 -40.79296875 29.14453125 C-38.78619312 27.210155 -38.78619312 27.210155 -39 25 C-40.32 24.67 -41.64 24.34 -43 24 C-43.721875 25.0725 -44.44375 26.145 -45.1875 27.25 C-47.43796996 30.41994768 -49.81667916 32.7261994 -53 35 C-53.66 34.67 -54.32 34.34 -55 34 C-49.41066427 27.63755989 -44.00541774 21.54188527 -37.0703125 16.59765625 C-34.85242549 14.97476264 -34.85242549 14.97476264 -32.6953125 12.53515625 C-29.65507621 9.67557168 -26.5235004 8.029927 -22.75 6.375 C-22.08685791 6.07650146 -21.42371582 5.77800293 -20.74047852 5.47045898 C-7.16919675 -0.55147667 -7.16919675 -0.55147667 0 0 Z M-21 20 C-20 22 -20 22 -20 22 Z M-25 33 C-24 35 -24 35 -24 35 Z " fill="#55677E" transform="translate(74,8)"/>
<path d="M0 0 C3.22325167 3.53636755 4.09607939 7.45628658 5.125 12 C5.37830078 13.06734375 5.37830078 13.06734375 5.63671875 14.15625 C6.09788337 16.10258258 6.54934183 18.05120793 7 20 C7.29390625 21.01513672 7.29390625 21.01513672 7.59375 22.05078125 C9.48492707 31.12479429 8.30757916 40.4663081 5.75 49.25 C5.54552246 49.96438232 5.34104492 50.67876465 5.13037109 51.41479492 C3.80040998 55.61125951 2.26725702 58.09503963 -1 61 C-1.5775 62.093125 -2.155 63.18625 -2.75 64.3125 C-4.8434139 68.17662763 -7.69945455 70.59938671 -11.0546875 73.37890625 C-13.1655696 75.08823699 -13.1655696 75.08823699 -15.5625 77.5625 C-25.70112898 87.70112898 -40.77887388 97.08440637 -55.5625 97.1875 C-57.0422308 97.14020267 -58.52185988 97.08331896 -60 97 C-59 95 -59 95 -55.31640625 93.6328125 C-53.73365693 93.12430001 -52.14888189 92.62206422 -50.5625 92.125 C-48.90438747 91.58505137 -47.24682933 91.04339716 -45.58984375 90.5 C-44.39270752 90.10941406 -44.39270752 90.10941406 -43.17138672 89.7109375 C-31.70292446 85.95602834 -22.03552308 80.03157607 -13 72 C-13.33 70.35 -13.66 68.7 -14 67 C-13.34 67 -12.68 67 -12 67 C-12 66.34 -12 65.68 -12 65 C-11.34 65 -10.68 65 -10 65 C-9.67 65.33 -9.34 65.66 -9 66 C-6.93597032 65.51294288 -6.93597032 65.51294288 -5 64 C-4.18129815 60.43793339 -4.18129815 60.43793339 -4 57 C-6.98242465 59.35454578 -9.80484545 61.63410909 -12.3125 64.5 C-14.37096411 66.32974587 -16.44453319 67.01712815 -19 68 C-19.66 68.66 -20.32 69.32 -21 70 C-23.74097623 71.06400765 -26.46836226 72.05564568 -29.25 73 C-30.00152344 73.26039063 -30.75304687 73.52078125 -31.52734375 73.7890625 C-33.00021931 74.29801426 -34.47480062 74.80206066 -35.95117188 75.30078125 C-37.78327855 75.92603787 -39.6035365 76.58576676 -41.421875 77.25 C-44 78 -44 78 -46 77 C-45.34 75.35 -44.68 73.7 -44 72 C-43.01 72 -42.02 72 -41 72 C-41 71.01 -41 70.02 -41 69 C-39.0625 68.4375 -39.0625 68.4375 -37 68 C-36.505 68.495 -36.505 68.495 -36 69 C-35.7525 68.1028125 -35.7525 68.1028125 -35.5 67.1875 C-33.48046098 64.24233893 -31.4107825 63.82865622 -28.10546875 62.71484375 C-25.22714508 61.73760213 -22.62216042 60.53492317 -20 59 C-19.67 58.01 -19.34 57.02 -19 56 C-16.70563607 53.56223833 -14.31367842 51.2869703 -11.84375 49.02734375 C-3.67700166 41.30976657 1.48001575 32.57035892 2.265625 21.1328125 C2.27352209 19.79688819 2.26803429 18.46082592 2.25 17.125 C2.24419922 16.07989258 2.24419922 16.07989258 2.23828125 15.01367188 C2.14997885 9.74005612 1.44448483 5.0556969 0 0 Z " fill="#899AA9" transform="translate(185,55)"/>
<path d="M0 0 C0.495 0.99 0.495 0.99 1 2 C-0.4375 4.625 -0.4375 4.625 -2 7 C-1.01 7.495 -1.01 7.495 0 8 C-0.33 8.66 -0.66 9.32 -1 10 C12.53 10.66 26.06 11.32 40 12 C40 12.33 40 12.66 40 13 C39.41784225 13.00364563 38.83568451 13.00729126 38.23588562 13.01104736 C32.18492494 13.05280891 26.13472729 13.12210901 20.08422852 13.20751953 C17.82519151 13.2357717 15.56605486 13.25696499 13.30688477 13.27099609 C10.06214224 13.29236652 6.81860308 13.33898732 3.57421875 13.390625 C2.56163498 13.39185364 1.54905121 13.39308228 0.50578308 13.39434814 C-0.43496567 13.41406677 -1.37571442 13.4337854 -2.3449707 13.45410156 C-3.17325882 13.46298401 -4.00154694 13.47186646 -4.85493469 13.48101807 C-7.73280748 14.17729709 -8.48612492 15.53850335 -10 18 C-8.68 18.66 -7.36 19.32 -6 20 C-7.485 20.495 -7.485 20.495 -9 21 C-9.33 22.98 -9.66 24.96 -10 27 C-9.01 27 -8.02 27 -7 27 C-6.505 28.98 -6.505 28.98 -6 31 C-1.71 31 2.58 31 7 31 C7 31.33 7 31.66 7 32 C6.25951416 32.16604736 5.51902832 32.33209473 4.75610352 32.50317383 C1.35714639 33.2681979 -2.04016721 34.04029593 -5.4375 34.8125 C-6.60216797 35.07353516 -7.76683594 35.33457031 -8.96679688 35.60351562 C-14.80294366 36.93514348 -20.47663774 38.34270624 -26.08081055 40.46191406 C-33.4483805 42.52757036 -41.27867399 38.70109363 -48 36 C-48 36.99 -48 37.98 -48 39 C-52.26983982 39.34855835 -55.03847789 39.23129765 -58.625 36.9375 C-61.66566179 34.79191698 -61.66566179 34.79191698 -64.16796875 35.09375 C-68.28673054 36.41175377 -71.91362169 38.47230277 -75.6875 40.5625 C-77.21021638 41.40082088 -78.73486791 42.23563938 -80.26171875 43.06640625 C-80.93162842 43.43709229 -81.60153809 43.80777832 -82.29174805 44.18969727 C-84 45 -84 45 -86 45 C-86 43.68 -86 42.36 -86 41 C-82.1118312 39.06750512 -78.21318038 37.15709785 -74.3125 35.25 C-73.22904297 34.71117187 -72.14558594 34.17234375 -71.02929688 33.6171875 C-59.68307545 28.0955842 -48.18321214 24.83252226 -35.8515625 22.40234375 C-33.88780279 21.99407068 -31.941294 21.50439735 -30 21 C-29.67 20.34 -29.34 19.68 -29 19 C-28.44570312 19.63808594 -27.89140625 20.27617188 -27.3203125 20.93359375 C-26.59585938 21.75988281 -25.87140625 22.58617188 -25.125 23.4375 C-24.40570313 24.26121094 -23.68640625 25.08492187 -22.9453125 25.93359375 C-21.16761255 28.05982155 -21.16761255 28.05982155 -19 29 C-18.68482422 28.00419922 -18.68482422 28.00419922 -18.36328125 26.98828125 C-16.51510535 22.93712203 -13.91217953 19.68971806 -11.1875 16.1875 C-7.13865988 10.95753965 -3.40168038 5.67641789 0 0 Z " fill="#47586E" transform="translate(118,73)"/>
<path d="M0 0 C4.14205652 4.19803026 6.15918948 7.3435106 6.3125 13.25 C6.25278582 18.31907063 5.59943039 21.2111259 2 25 C-3.5905342 28.37761441 -8.47624172 29.65237583 -15 29 C-19.63563777 27.14574489 -23.04318496 24.59364663 -25.5625 20.25 C-27.46804033 15.68357002 -27.68257663 11.67382398 -26 7 C-23.45932748 3.05010113 -20.56675494 -0.03584311 -16.5625 -2.5 C-10.1962802 -3.74218923 -5.47385553 -3.64923702 0 0 Z " fill="#6B7C8F" transform="translate(107,31)"/>
<path d="M0 0 C0.96095581 -0.00095673 1.92191162 -0.00191345 2.9119873 -0.00289917 C4.92879299 -0.00357485 6.94560093 -0.00176363 8.96240234 0.00244141 C12.02316238 0.00779835 15.0837757 0.00247544 18.14453125 -0.00390625 C20.11718782 -0.00324536 22.0898443 -0.00196397 24.0625 0 C24.96383667 -0.00202423 25.86517334 -0.00404846 26.79382324 -0.00613403 C32.75972593 0.01553373 38.6066854 0.43571722 44.53125 1.1328125 C42.96113585 4.48016039 41.36665963 6.41751133 38.53125 8.8203125 C37.479375 9.72330078 37.479375 9.72330078 36.40625 10.64453125 C33.40090276 13.03002563 31.49125269 13.28758627 27.71435547 13.42993164 C26.71346893 13.46989761 25.7125824 13.50986359 24.68136597 13.55104065 C23.05631638 13.60892006 23.05631638 13.60892006 21.3984375 13.66796875 C20.29146515 13.71094589 19.1844928 13.75392303 18.04397583 13.79820251 C14.49821622 13.93487121 10.9522542 14.06515972 7.40625 14.1953125 C5.00649442 14.28669017 2.60675455 14.37848168 0.20703125 14.47070312 C-5.68472164 14.6962137 -11.57665328 14.91648242 -17.46875 15.1328125 C-17.79875 13.4828125 -18.12875 11.8328125 -18.46875 10.1328125 C-19.78875 10.4628125 -21.10875 10.7928125 -22.46875 11.1328125 C-21.97043276 7.44526493 -21.36807357 5.52790588 -18.46875 3.1328125 C-19.12875 2.4728125 -19.78875 1.8128125 -20.46875 1.1328125 C-13.62317798 0.32734977 -6.89011596 -0.01547389 0 0 Z " fill="#65788B" transform="translate(129.46875,89.8671875)"/>
<path d="M0 0 C2 1 2 1 4 3 C4 3.66 4 4.32 4 5 C7.465 4.505 7.465 4.505 11 4 C11 3.34 11 2.68 11 2 C12.32 2 13.64 2 15 2 C15.33 1.34 15.66 0.68 16 0 C16.61875 0.350625 17.2375 0.70125 17.875 1.0625 C18.57625 1.371875 19.2775 1.68125 20 2 C20.66 1.67 21.32 1.34 22 1 C22.33 2.32 22.66 3.64 23 5 C23.99 4.67 24.98 4.34 26 4 C26 4.66 26 5.32 26 6 C26.66 6 27.32 6 28 6 C28 5.34 28 4.68 28 4 C28.66 4 29.32 4 30 4 C30 3.34 30 2.68 30 2 C31.98 1.34 33.96 0.68 36 0 C34.948125 0.928125 34.948125 0.928125 33.875 1.875 C27.65732898 8.0393767 23.98416179 15.53460038 23.4375 24.125 C23.35371094 25.40632813 23.26992187 26.68765625 23.18359375 28.0078125 C23.12300781 28.99523437 23.06242187 29.98265625 23 31 C22.34 30.01 21.68 29.02 21 28 C20.34 28 19.68 28 19 28 C18.67 27.34 18.34 26.68 18 26 C17.01 26 16.02 26 15 26 C15 25.34 15 24.68 15 24 C14.01 24 13.02 24 12 24 C11.34 24.99 10.68 25.98 10 27 C7.5625 27.875 7.5625 27.875 5 28 C3.1875 26.5625 3.1875 26.5625 2 25 C2.37125 23.906875 2.7425 22.81375 3.125 21.6875 C3.558125 19.8621875 3.558125 19.8621875 4 18 C3.34 17.01 2.68 16.02 2 15 C3.98 13.68 5.96 12.36 8 11 C7.67 10.34 7.34 9.68 7 9 C4.3094472 10.22007944 4.3094472 10.22007944 2 12 C0.33382885 12.04063832 -1.33388095 12.042721 -3 12 C-3 11.01 -3 10.02 -3 9 C-2.01 9 -1.02 9 0 9 C0 8.01 0 7.02 0 6 C-0.99 5.67 -1.98 5.34 -3 5 C-2.625 3.0625 -2.625 3.0625 -2 1 C-1.34 0.67 -0.68 0.34 0 0 Z M9 8 C10 10 10 10 10 10 Z M5 21 C6 23 6 23 6 23 Z " fill="#607184" transform="translate(44,20)"/>
<path d="M0 0 C1.8253125 0.0309375 1.8253125 0.0309375 3.6875 0.0625 C4.1825 2.5375 4.1825 2.5375 4.6875 5.0625 C-0.87845969 6.75537253 -6.45675268 8.38105097 -12.0625 9.9375 C-14.48128661 10.63856008 -16.89800399 11.34680249 -19.3125 12.0625 C-20.34503906 12.36285156 -21.37757812 12.66320312 -22.44140625 12.97265625 C-32.1048042 16.09102884 -40.85295999 20.81948655 -49.7824707 25.60522461 C-50.8262085 26.16346924 -51.86994629 26.72171387 -52.9453125 27.296875 C-54.35127686 28.05822754 -54.35127686 28.05822754 -55.78564453 28.83496094 C-57.99406877 29.90780703 -59.91519669 30.59133742 -62.3125 31.0625 C-63.0546875 29.33984375 -63.0546875 29.33984375 -63.3125 27.0625 C-58.74349827 20.64523376 -52.35870111 16.32463014 -45.3125 13.0625 C-44.3534375 12.59328125 -43.394375 12.1240625 -42.40625 11.640625 C-29.98942492 5.90523437 -13.85147335 -0.23477073 0 0 Z " fill="#ACB4C2" transform="translate(83.3125,88.9375)"/>
<path d="M0 0 C1.87795001 0.28490267 3.7560591 0.56901275 5.63623047 0.83886719 C7.54297861 1.11319923 9.44735116 1.40389232 11.3515625 1.6953125 C15.1010418 2.00843818 18.30938435 1.67360851 22 1 C22 1.66 22 2.32 22 3 C21.34 3.33 20.68 3.66 20 4 C19.05453338 5.71665519 19.05453338 5.71665519 18.1875 7.75 C14.18977397 15.94897266 5.3049783 23.25988275 -3 27 C-3.125 20.375 -3.125 20.375 -2 17 C-3.32 17.33 -4.64 17.66 -6 18 C-2.97727468 14.74475735 0.25718301 12.38179263 4 10 C-1.83840316 7.21980802 -7.83695732 5.60273434 -14.0859375 3.96484375 C-15.52839844 3.48724609 -15.52839844 3.48724609 -17 3 C-17.33 2.34 -17.66 1.68 -18 1 C-11.58577543 -0.83480183 -6.54390754 -1.05857328 0 0 Z " fill="#DFE1E9" transform="translate(111,121)"/>
<path d="M0 0 C0 0.33 0 0.66 0 1 C-1.09570312 1.06316406 -2.19140625 1.12632813 -3.3203125 1.19140625 C-24.82419561 2.73666482 -46.26664461 7.65249848 -66.06518555 16.21166992 C-71.20768542 18.30695473 -76.50869612 20.11430583 -82 21 C-81.87890625 18.70703125 -81.87890625 18.70703125 -81 16 C-78.27734375 14.19921875 -78.27734375 14.19921875 -74.9375 12.6875 C-73.83277344 12.17574219 -72.72804688 11.66398437 -71.58984375 11.13671875 C-70.73519531 10.76160156 -69.88054687 10.38648437 -69 10 C-69.92683594 9.66226563 -70.85367188 9.32453125 -71.80859375 8.9765625 C-73.00613281 8.53054687 -74.20367187 8.08453125 -75.4375 7.625 C-77.22994141 6.96371094 -77.22994141 6.96371094 -79.05859375 6.2890625 C-82 5 -82 5 -83 3 C-80.03 3.495 -80.03 3.495 -77 4 C-77 3.01 -77 2.02 -77 1 C-72.545 1.99 -72.545 1.99 -68 3 C-68.33 3.99 -68.66 4.98 -69 6 C-66.69 6.33 -64.38 6.66 -62 7 C-62.66 7.66 -63.32 8.32 -64 9 C-63.18595703 8.79503906 -63.18595703 8.79503906 -62.35546875 8.5859375 C-53.64896723 6.4201411 -44.93933666 4.55455779 -36.08911133 3.09033203 C-31.31820003 2.28768498 -26.68655387 1.20243864 -22 0 C-14.5859635 -1.40611037 -7.48431675 -0.68325925 0 0 Z " fill="#D6DAE3" transform="translate(147,108)"/>
<path d="M0 0 C0.96095581 -0.00095673 1.92191162 -0.00191345 2.9119873 -0.00289917 C4.92879299 -0.00357485 6.94560093 -0.00176363 8.96240234 0.00244141 C12.02316238 0.00779835 15.0837757 0.00247544 18.14453125 -0.00390625 C20.11718782 -0.00324536 22.0898443 -0.00196397 24.0625 0 C24.96383667 -0.00202423 25.86517334 -0.00404846 26.79382324 -0.00613403 C32.75972593 0.01553373 38.6066854 0.43571722 44.53125 1.1328125 C44.53125 1.7928125 44.53125 2.4528125 44.53125 3.1328125 C43.55929688 3.060625 42.58734375 2.9884375 41.5859375 2.9140625 C32.9190143 2.31472562 24.28210117 2.02494647 15.59375 2.0078125 C14.62872559 2.00330078 13.66370117 1.99878906 12.66943359 1.99414062 C11.31906006 1.99704102 11.31906006 1.99704102 9.94140625 2 C9.13840088 2.00112793 8.33539551 2.00225586 7.50805664 2.00341797 C5.45468338 2.00949677 5.45468338 2.00949677 3.53125 3.1328125 C2.87125 2.8028125 2.21125 2.4728125 1.53125 2.1328125 C1.53125 3.1228125 1.53125 4.1128125 1.53125 5.1328125 C0.54125 5.1328125 -0.44875 5.1328125 -1.46875 5.1328125 C-1.13875 7.1128125 -0.80875 9.0928125 -0.46875 11.1328125 C-1.45875 11.4628125 -2.44875 11.7928125 -3.46875 12.1328125 C-0.49875 12.6278125 -0.49875 12.6278125 2.53125 13.1328125 C2.53125 13.4628125 2.53125 13.7928125 2.53125 14.1328125 C-4.06875 14.4628125 -10.66875 14.7928125 -17.46875 15.1328125 C-17.79875 13.4828125 -18.12875 11.8328125 -18.46875 10.1328125 C-19.78875 10.4628125 -21.10875 10.7928125 -22.46875 11.1328125 C-21.97043276 7.44526493 -21.36807357 5.52790588 -18.46875 3.1328125 C-19.12875 2.4728125 -19.78875 1.8128125 -20.46875 1.1328125 C-13.62317798 0.32734977 -6.89011596 -0.01547389 0 0 Z " fill="#586B7F" transform="translate(129.46875,89.8671875)"/>
<path d="M0 0 C-3.78565038 3.1246638 -8.043625 5.2450058 -12.375 7.5 C-13.1175 7.89058594 -13.86 8.28117187 -14.625 8.68359375 C-16.08045832 9.44732364 -17.53865879 10.20585404 -18.99975586 10.95874023 C-20.73295211 11.86098386 -22.44486268 12.8038951 -24.15234375 13.75390625 C-27.3542939 15.15503396 -29.7046504 15.43308574 -33.1875 15.4375 C-34.21230469 15.45683594 -35.23710938 15.47617188 -36.29296875 15.49609375 C-39 15 -39 15 -40.86328125 12.97265625 C-41.23839844 12.32167969 -41.61351563 11.67070313 -42 11 C-41.649375 10.38125 -41.29875 9.7625 -40.9375 9.125 C-40.628125 8.42375 -40.31875 7.7225 -40 7 C-40.33 6.34 -40.66 5.68 -41 5 C-32.88134264 2.98377715 -24.87793411 1.63482112 -16.5625 0.8125 C-15.72299805 0.72887207 -14.88349609 0.64524414 -14.01855469 0.55908203 C-9.3237878 0.12438139 -4.71423611 -0.08248327 0 0 Z " fill="#5B6E82" transform="translate(154,108)"/>
<path d="M0 0 C1 3 1 3 -0.58984375 6.2578125 C-1.3579668 7.55552467 -2.141534 8.84417682 -2.9375 10.125 C-3.35427002 10.80006592 -3.77104004 11.47513184 -4.20043945 12.1706543 C-15.15028441 29.53757896 -33.09842152 41.78016771 -53.0859375 46.58984375 C-54.03339844 46.79287109 -54.03339844 46.79287109 -55 47 C-55.66 46.34 -56.32 45.68 -57 45 C-57 44.01 -57 43.02 -57 42 C-55.85144531 41.64808594 -54.70289063 41.29617187 -53.51953125 40.93359375 C-40.56977078 36.86083185 -29.18041688 32.27549093 -19 23 C-18.34 23 -17.68 23 -17 23 C-16.61134766 22.12021484 -16.61134766 22.12021484 -16.21484375 21.22265625 C-14.91475016 18.84402842 -13.51125162 17.31081607 -11.5625 15.4375 C-10.96566406 14.85871094 -10.36882812 14.27992187 -9.75390625 13.68359375 C-8.66271107 12.63614359 -7.56147086 11.59893315 -6.4453125 10.578125 C-4.67591717 8.64613658 -3.54922653 6.61882785 -2.3125 4.3125 C-1.87550781 3.50425781 -1.43851563 2.69601563 -0.98828125 1.86328125 C-0.66214844 1.24839844 -0.33601563 0.63351563 0 0 Z " fill="#53667C" transform="translate(186,111)"/>
<path d="M0 0 C0.33 0 0.66 0 1 0 C0.23278896 7.41637335 -0.48708297 12.64922758 -6 18 C-6.5775 19.093125 -7.155 20.18625 -7.75 21.3125 C-9.8434139 25.17662763 -12.69945455 27.59938671 -16.0546875 30.37890625 C-18.1655696 32.08823699 -18.1655696 32.08823699 -20.5625 34.5625 C-30.70112898 44.70112898 -45.77887388 54.08440637 -60.5625 54.1875 C-62.0422308 54.14020267 -63.52185988 54.08331896 -65 54 C-64 52 -64 52 -60.31640625 50.6328125 C-58.73365693 50.12430001 -57.14888189 49.62206422 -55.5625 49.125 C-53.90438747 48.58505137 -52.24682933 48.04339716 -50.58984375 47.5 C-49.39270752 47.10941406 -49.39270752 47.10941406 -48.17138672 46.7109375 C-36.70292446 42.95602834 -27.03552308 37.03157607 -18 29 C-18.33 27.35 -18.66 25.7 -19 24 C-18.34 24 -17.68 24 -17 24 C-17 23.34 -17 22.68 -17 22 C-16.34 22 -15.68 22 -15 22 C-14.67 22.33 -14.34 22.66 -14 23 C-11.95272922 22.32087754 -11.95272922 22.32087754 -10 21 C-9.44739056 18.94085315 -9.44739056 18.94085315 -9.5 16.625 C-9.2811687 13.14053237 -9.2132385 12.26493268 -6.9375 9.4375 C-6.298125 8.963125 -5.65875 8.48875 -5 8 C-5 8.66 -5 9.32 -5 10 C-4.34 10 -3.68 10 -3 10 C-2.01 6.7 -1.02 3.4 0 0 Z " fill="#889BAC" transform="translate(190,98)"/>
<path d="M0 0 C-0.598125 0.433125 -1.19625 0.86625 -1.8125 1.3125 C-3.95434356 2.89035789 -3.95434356 2.89035789 -5.5 4.5 C-7.21852773 6.21852773 -8.98812609 7.63711768 -11 9 C-11.66 9 -12.32 9 -13 9 C-13.50204863 16.51253427 -13.50204863 16.51253427 -11.25 23.5625 C-9.17348719 25.81205555 -7.92368492 27.15118825 -5 28 C-1.9254644 27.2236068 -1.9254644 27.2236068 0 25 C2.31765729 24.28072705 4.65095874 23.6090107 7 23 C7 22.34 7 21.68 7 21 C6.34 21 5.68 21 5 21 C5 20.34 5 19.68 5 19 C9.5 17.5 9.5 17.5 14 16 C14.33 16.66 14.66 17.32 15 18 C14.8082033 13.5982658 14.56992191 10.00832338 12.375 6.125 C9.39357064 3.45740531 6.74750329 2.36928005 3 1 C3 0.67 3 0.34 3 0 C6.48371543 0.06967431 9.07858492 0.18866548 11.765625 2.5546875 C16.32813439 7.89238053 17.36042449 11.18174329 17.27734375 18.234375 C16.88598046 22.13698363 15.68620197 24.17241898 13 27 C7.4094658 30.37761441 2.52375828 31.65237583 -4 31 C-8.63563777 29.14574489 -12.04318496 26.59364663 -14.5625 22.25 C-16.46388864 17.69351911 -16.69930703 13.66095643 -15 9 C-10.70398887 2.67353585 -7.73305656 -0.16810993 0 0 Z " fill="#637181" transform="translate(96,29)"/>
<path d="M0 0 C1.65 0 3.3 0 5 0 C6.6735337 2.95449913 8.33763985 5.9142018 10 8.875 C10.47695313 9.71675781 10.95390625 10.55851563 11.4453125 11.42578125 C11.89648438 12.23144531 12.34765625 13.03710938 12.8125 13.8671875 C13.44091797 14.98262939 13.44091797 14.98262939 14.08203125 16.12060547 C15 18 15 18 15 20 C13.68 20 12.36 20 11 20 C10.34 18.35 9.68 16.7 9 15 C4.71 15 0.42 15 -4 15 C-4.99 17.475 -4.99 17.475 -6 20 C-7.32 19.67 -8.64 19.34 -10 19 C-9.36191406 17.87980469 -8.72382812 16.75960937 -8.06640625 15.60546875 C-7.23163275 14.13289077 -6.39700491 12.66023021 -5.5625 11.1875 C-5.14162109 10.44951172 -4.72074219 9.71152344 -4.28710938 8.95117188 C-3.68286133 7.88286133 -3.68286133 7.88286133 -3.06640625 6.79296875 C-2.5086853 5.81106567 -2.5086853 5.81106567 -1.93969727 4.80932617 C-0.8645343 2.85463588 -0.8645343 2.85463588 0 0 Z " fill="#374053" transform="translate(49,182)"/>
<path d="M0 0 C2.23046875 0.03515625 2.23046875 0.03515625 5 1 C6.68989392 3.49797583 8.00663634 5.75391301 9.3125 8.4375 C9.67150391 9.13166016 10.03050781 9.82582031 10.40039062 10.54101562 C13 15.65605655 13 15.65605655 13 18 C13.66 18 14.32 18 15 18 C15 18.66 15 19.32 15 20 C12.625 19.6875 12.625 19.6875 10 19 C9.34 18.01 8.68 17.02 8 16 C5.10391601 15.63501966 5.10391601 15.63501966 1.875 15.8125 C0.77929688 15.83957031 -0.31640625 15.86664063 -1.4453125 15.89453125 C-2.70988281 15.94673828 -2.70988281 15.94673828 -4 16 C-4.66 17.32 -5.32 18.64 -6 20 C-7.32 20 -8.64 20 -10 20 C-8.56347895 15.08558588 -6.45840385 10.99761642 -3.875 6.625 C-3.50246094 5.98433594 -3.12992187 5.34367188 -2.74609375 4.68359375 C-1.83565998 3.11951523 -0.91851809 1.55934466 0 0 Z " fill="#313C4F" transform="translate(119,182)"/>
<path d="M0 0 C7.59 0.33 15.18 0.66 23 1 C23 4 23 4 21.53125 5.82421875 C15.37224068 11.47392538 15.37224068 11.47392538 10.6875 11.5 C7 11 7 11 4 10 C2.33378384 9.96125079 0.66605828 9.9549714 -1 10 C-2 7 -2 7 0 0 Z " fill="#6D7F91" transform="translate(149,91)"/>
<path d="M0 0 C1.74216797 0.04060547 1.74216797 0.04060547 3.51953125 0.08203125 C4.39996094 0.11683594 5.28039062 0.15164062 6.1875 0.1875 C6.5175 1.1775 6.8475 2.1675 7.1875 3.1875 C2.5675 3.1875 -2.0525 3.1875 -6.8125 3.1875 C-6.8125 4.8375 -6.8125 6.4875 -6.8125 8.1875 C-6.06484375 8.22488281 -5.3171875 8.26226562 -4.546875 8.30078125 C-3.06960937 8.39939453 -3.06960937 8.39939453 -1.5625 8.5 C-0.58796875 8.55800781 0.3865625 8.61601562 1.390625 8.67578125 C4.4808474 9.2411711 5.95689877 9.99898558 8.1875 12.1875 C8.4375 14.875 8.4375 14.875 8.1875 17.1875 C2.28854429 21.2324982 -3.88553328 20.46498976 -10.8125 20.1875 C-11.1425 19.1975 -11.4725 18.2075 -11.8125 17.1875 C-6.8625 16.8575 -1.9125 16.5275 3.1875 16.1875 C3.5175 15.1975 3.8475 14.2075 4.1875 13.1875 C3.28386719 12.99414062 2.38023437 12.80078125 1.44921875 12.6015625 C0.26972656 12.34117187 -0.90976563 12.08078125 -2.125 11.8125 C-3.29675781 11.55726563 -4.46851563 11.30203125 -5.67578125 11.0390625 C-8.8125 10.1875 -8.8125 10.1875 -11.8125 8.1875 C-12.3125 5.75 -12.3125 5.75 -11.8125 3.1875 C-7.88912065 0.11576329 -4.89643093 -0.14837669 0 0 Z " fill="#3A4256" transform="translate(147.8125,181.8125)"/>
<path d="M0 0 C-0.66 0 -1.32 0 -2 0 C-2 0.99 -2 1.98 -2 3 C-0.68 3.66 0.64 4.32 2 5 C-1.41295358 6.81955658 -4.83096527 8.62939972 -8.25 10.4375 C-9.70212891 11.2119043 -9.70212891 11.2119043 -11.18359375 12.00195312 C-12.58544922 12.74155273 -12.58544922 12.74155273 -14.015625 13.49609375 C-15.30388184 14.17949829 -15.30388184 14.17949829 -16.61816406 14.87670898 C-18.76183115 15.88767785 -20.68600426 16.52923771 -23 17 C-23.75390625 15.28125 -23.75390625 15.28125 -24 13 C-19.54091969 7.04057031 -13.13778997 1.05473078 -5.8125 -0.8125 C-3 -1 -3 -1 0 0 Z " fill="#959EAF" transform="translate(44,103)"/>
<path d="M0 0 C-3.22665727 3.22665727 -7.59758514 3.65164834 -11.93359375 4.8046875 C-15.19401874 6.07563023 -16.26503415 7.02754954 -18 10 C-20.31 9.67 -22.62 9.34 -25 9 C-25 9.66 -25 10.32 -25 11 C-28.465 12.485 -28.465 12.485 -32 14 C-32 14.99 -32 15.98 -32 17 C-31.34 17.33 -30.68 17.66 -30 18 C-30 18.99 -30 19.98 -30 21 C-30.99 21 -31.98 21 -33 21 C-33.33 21.99 -33.66 22.98 -34 24 C-34.66 24 -35.32 24 -36 24 C-36.33 24.99 -36.66 25.98 -37 27 C-38.32 26.01 -39.64 25.02 -41 24 C-44.91204657 25.48387973 -45.91062149 27.4898441 -48 31 C-50.6875 33.3125 -50.6875 33.3125 -53 35 C-53.66 34.67 -54.32 34.34 -55 34 C-49.41066427 27.63755989 -44.00541774 21.54188527 -37.0703125 16.59765625 C-34.85242549 14.97476264 -34.85242549 14.97476264 -32.6953125 12.53515625 C-29.65507621 9.67557168 -26.5235004 8.029927 -22.75 6.375 C-22.08685791 6.07650146 -21.42371582 5.77800293 -20.74047852 5.47045898 C-7.16919675 -0.55147667 -7.16919675 -0.55147667 0 0 Z " fill="#4D5D71" transform="translate(74,8)"/>
<path d="M0 0 C0.33 0.99 0.66 1.98 1 3 C0.67 3.33 0.34 3.66 0 4 C0 6.03005482 0.00357588 8.06064427 0.0625 10.08984375 C0 12 0 12 -1 14 C-2.32 14 -3.64 14 -5 14 C-4.67 14.99 -4.34 15.98 -4 17 C-4.33 17.66 -4.66 18.32 -5 19 C-12.75 19.125 -12.75 19.125 -15 18 C-15.875 15.23046875 -15.875 15.23046875 -16 12 C-12.12716291 6.16281526 -6.61885964 2.11240201 0 0 Z " fill="#6D7F95" transform="translate(109,137)"/>
<path d="M0 0 C0 0.33 0 0.66 0 1 C-1.65 1.33 -3.3 1.66 -5 2 C-2.525 2.495 -2.525 2.495 0 3 C0 3.33 0 3.66 0 4 C-0.87140625 4.10957031 -1.7428125 4.21914062 -2.640625 4.33203125 C-9.45808297 5.23955001 -15.99793369 6.43221025 -22.63671875 8.2109375 C-27.69171014 9.39689367 -32.80999572 10.16135154 -37.94628906 10.90991211 C-41.58570724 11.46753936 -43.89209139 11.92806093 -47 14 C-49.1875 13.625 -49.1875 13.625 -51 13 C-50.67 12.67 -50.34 12.34 -50 12 C-52.475 11.01 -52.475 11.01 -55 10 C-55 9.34 -55 8.68 -55 8 C-54.28457031 8.11859375 -53.56914063 8.2371875 -52.83203125 8.359375 C-45.71233708 9.28042211 -40.64027154 8.59362747 -33.90234375 6.2578125 C-28.9194827 4.57493942 -23.80844863 3.4286243 -18.6875 2.25 C-17.75631348 2.02747559 -16.82512695 1.80495117 -15.86572266 1.57568359 C-10.4392428 0.33775878 -5.5645475 -0.23484608 0 0 Z " fill="#EAEEF2" transform="translate(133,104)"/>
<path d="M0 0 C-4.75 3 -4.75 3 -7 3 C-7.33 4.65 -7.66 6.3 -8 8 C-7.38511719 7.69964844 -6.77023438 7.39929688 -6.13671875 7.08984375 C-5.32847656 6.70957031 -4.52023438 6.32929687 -3.6875 5.9375 C-2.88699219 5.55464844 -2.08648437 5.17179687 -1.26171875 4.77734375 C1 4 1 4 4 5 C1.16350792 6.71860957 -1.6964179 8.39378346 -4.5625 10.0625 C-5.36236328 10.54783203 -6.16222656 11.03316406 -6.98632812 11.53320312 C-13.75750806 15.43008627 -13.75750806 15.43008627 -18.02734375 14.93359375 C-19.00832031 14.62550781 -19.98929688 14.31742188 -21 14 C-22 12 -22 12 -22 10 C-23.65 10.33 -25.3 10.66 -27 11 C-23.22298655 7.79709259 -18.89678902 5.92965975 -14.4375 3.875 C-13.66986328 3.51535156 -12.90222656 3.15570313 -12.11132812 2.78515625 C-3.57170789 -1.1905693 -3.57170789 -1.1905693 0 0 Z " fill="#7D8BA0" transform="translate(73,121)"/>
<path d="M0 0 C6.79718109 0.38127321 13.00627168 1.38212492 19.5390625 3.30078125 C22.33466538 4.09508747 25.12096124 4.61094071 28 5 C28.33 5.99 28.66 6.98 29 8 C27.02 8 25.04 8 23 8 C23 9.98 23 11.96 23 14 C22.01 13.67 21.02 13.34 20 13 C19.67 13.99 19.34 14.98 19 16 C18.34 16 17.68 16 17 16 C17 15.01 17 14.02 17 13 C12.79464288 8.19387757 7.9654335 5.1127577 2 3 C2 2.34 2 1.68 2 1 C1.34 0.67 0.68 0.34 0 0 Z " fill="#B1BDC7" transform="translate(108,16)"/>
<path d="M0 0 C7.92 0 15.84 0 24 0 C24 0.99 24 1.98 24 3 C21.03 3 18.06 3 15 3 C15 8.61 15 14.22 15 20 C13.35 20 11.7 20 10 20 C10 14.39 10 8.78 10 3 C6.7 3 3.4 3 0 3 C0 2.01 0 1.02 0 0 Z " fill="#575F71" transform="translate(61,182)"/>
<path d="M0 0 C0.495 0.99 0.495 0.99 1 2 C-4.45623695 4.58453329 -9.97753096 6.79042806 -15.6875 8.75 C-17.54955078 9.39195313 -17.54955078 9.39195313 -19.44921875 10.046875 C-24.06082374 11.28475357 -27.46560543 11.51146486 -32 10 C-33.33106622 9.65772583 -34.66400079 9.32248257 -36 9 C-30.72161989 6.59305867 -25.47249444 4.87880448 -19.875 3.375 C-19.08996094 3.1584375 -18.30492188 2.941875 -17.49609375 2.71875 C-11.56329706 1.09798598 -6.1955001 -0.1440814 0 0 Z " fill="#C4CAD5" transform="translate(85,89)"/>
<path d="M0 0 C-0.165 1.0725 -0.33 2.145 -0.5 3.25 C-1.21160726 8.82258642 -1.08411046 14.39263574 -1 20 C-1.66 19.01 -2.32 18.02 -3 17 C-3.66 17 -4.32 17 -5 17 C-5.33 16.34 -5.66 15.68 -6 15 C-6.99 15 -7.98 15 -9 15 C-9 14.34 -9 13.68 -9 13 C-9.804375 12.731875 -10.60875 12.46375 -11.4375 12.1875 C-12.283125 11.795625 -13.12875 11.40375 -14 11 C-14.33 10.01 -14.66 9.02 -15 8 C-13.68 7.01 -12.36 6.02 -11 5 C-11.66 4.34 -12.32 3.68 -13 3 C-4 0 -4 0 0 0 Z " fill="#5E6F83" transform="translate(68,31)"/>
<path d="M0 0 C1.36125 0.7115625 1.36125 0.7115625 2.75 1.4375 C2.42 2.7575 2.09 4.0775 1.75 5.4375 C-2.51983982 5.78605835 -5.28847789 5.66879765 -8.875 3.375 C-11.91566179 1.22941698 -11.91566179 1.22941698 -14.41796875 1.53125 C-18.53673054 2.84925377 -22.16362169 4.90980277 -25.9375 7 C-27.46021638 7.83832088 -28.98486791 8.67313938 -30.51171875 9.50390625 C-31.18162842 9.87459229 -31.85153809 10.24527832 -32.54174805 10.62719727 C-34.25 11.4375 -34.25 11.4375 -36.25 11.4375 C-36.25 10.1175 -36.25 8.7975 -36.25 7.4375 C-13.57575525 -5.4303021 -13.57575525 -5.4303021 0 0 Z " fill="#4E5E75" transform="translate(68.25,106.5625)"/>
<path d="M0 0 C0.33 0.66 0.66 1.32 1 2 C-0.4375 4.625 -0.4375 4.625 -2 7 C-1.34 7.33 -0.68 7.66 0 8 C-0.33 8.66 -0.66 9.32 -1 10 C12.53 10.66 26.06 11.32 40 12 C40 12.33 40 12.66 40 13 C39.41784225 13.00364563 38.83568451 13.00729126 38.23588562 13.01104736 C32.18492494 13.05280891 26.13472729 13.12210901 20.08422852 13.20751953 C17.82519151 13.2357717 15.56605486 13.25696499 13.30688477 13.27099609 C10.06214224 13.29236652 6.81860308 13.33898732 3.57421875 13.390625 C2.56163498 13.39185364 1.54905121 13.39308228 0.50578308 13.39434814 C-0.43496567 13.41406677 -1.37571442 13.4337854 -2.3449707 13.45410156 C-3.17325882 13.46298401 -4.00154694 13.47186646 -4.85493469 13.48101807 C-7.73280748 14.17729709 -8.48612492 15.53850335 -10 18 C-8.68 18.66 -7.36 19.32 -6 20 C-6.51949219 20.23074219 -7.03898437 20.46148437 -7.57421875 20.69921875 C-12.28541042 22.90241929 -15.54373147 25.1116979 -19 29 C-17.40862033 23.97202129 -14.37914546 20.28994151 -11.1875 16.1875 C-7.13865988 10.95753965 -3.40168038 5.67641789 0 0 Z " fill="#3B4858" transform="translate(118,73)"/>
<path d="M0 0 C2.54860272 -0.15899454 5.03804343 -0.13762831 7.59020996 -0.04962158 C8.51678406 -0.0411319 9.44335815 -0.03264221 10.39801025 -0.02389526 C13.35389092 0.00965959 16.30703081 0.08494179 19.26208496 0.16131592 C21.26725386 0.19141287 23.27246558 0.21878915 25.27770996 0.24334717 C30.19022233 0.3094578 35.10068921 0.41299346 40.01208496 0.53631592 C40.01208496 0.86631592 40.01208496 1.19631592 40.01208496 1.53631592 C30.44208496 1.86631592 20.87208496 2.19631592 11.01208496 2.53631592 C26.85208496 3.03131592 26.85208496 3.03131592 43.01208496 3.53631592 C43.01208496 3.86631592 43.01208496 4.19631592 43.01208496 4.53631592 C41.95408691 4.56137207 40.89608887 4.58642822 39.80603027 4.61224365 C35.82498088 4.70747246 31.84405999 4.80739551 27.86315918 4.90863037 C26.15062497 4.95154821 24.43805971 4.99324673 22.72546387 5.03363037 C13.12287445 5.2609272 3.57480574 5.55967213 -5.98791504 6.53631592 C-3.32056643 0.89584947 -3.32056643 0.89584947 0 0 Z " fill="#B5C0CD" transform="translate(112.9879150390625,85.46368408203125)"/>
<path d="M0 0 C1.32 0 2.64 0 4 0 C4 5.61 4 11.22 4 17 C8.62 17 13.24 17 18 17 C18 17.99 18 18.98 18 20 C12.06 20 6.12 20 0 20 C0 13.4 0 6.8 0 0 Z " fill="#454F5F" transform="translate(89,182)"/>
<path d="M0 0 C-3.85523365 3.1664319 -8.18290864 5.40682623 -12.5625 7.75 C-13.33013672 8.17410156 -14.09777344 8.59820312 -14.88867188 9.03515625 C-15.99758789 9.62876953 -15.99758789 9.62876953 -17.12890625 10.234375 C-17.79994385 10.59756836 -18.47098145 10.96076172 -19.16235352 11.33496094 C-21 12 -21 12 -24 11 C-23.0409375 10.5978125 -23.0409375 10.5978125 -22.0625 10.1875 C-19.66868314 9.11332248 -19.66868314 9.11332248 -19 6 C-19.99 5.67 -20.98 5.34 -22 5 C-22 5.66 -22 6.32 -22 7 C-22.99 6.67 -23.98 6.34 -25 6 C-24.67 5.34 -24.34 4.68 -24 4 C-24.99 3.34 -25.98 2.68 -27 2 C-23.81309767 1.66078548 -20.62539896 1.32970583 -17.4375 1 C-16.54224609 0.90460938 -15.64699219 0.80921875 -14.72460938 0.7109375 C-9.78509212 0.20432035 -4.96511986 -0.10897382 0 0 Z " fill="#647586" transform="translate(154,108)"/>
<path d="M0 0 C-0.66 1.65 -1.32 3.3 -2 5 C-0.35 5.66 1.3 6.32 3 7 C3 7.33 3 7.66 3 8 C-0.95447868 8.08413784 -4.70080807 7.95020849 -8.625 7.4375 C-11.30636963 7.10176167 -13.01337317 7.00279904 -15.6875 7.5625 C-18.87522479 8.16558307 -21.03448077 7.17241458 -24 6 C-20.51812247 3.67874831 -17.12828961 2.84877315 -13.125 1.875 C-12.41730469 1.69324219 -11.70960937 1.51148437 -10.98046875 1.32421875 C-7.25197827 0.40077511 -3.8442625 -0.22613309 0 0 Z " fill="#53667B" transform="translate(115,114)"/>
<path d="M0 0 C-0.598125 0.433125 -1.19625 0.86625 -1.8125 1.3125 C-3.95434356 2.89035789 -3.95434356 2.89035789 -5.5 4.5 C-7.21852773 6.21852773 -8.98812609 7.63711768 -11 9 C-11.66 9 -12.32 9 -13 9 C-13.50204863 16.51253427 -13.50204863 16.51253427 -11.25 23.5625 C-8.45369754 26.59182766 -6.53886984 27.84192878 -2.4140625 28.265625 C2.77452682 28.23655727 7.15137724 28.09670173 12 26 C9.37015289 29.94477066 7.56715441 30.02667201 3 31 C-2.44198626 31.69261643 -5.78206526 30.66602095 -10.1953125 27.609375 C-13.8983314 24.30711573 -15.6903723 20.68344007 -16.2578125 15.765625 C-16.0763076 9.91713381 -13.63946083 6.68536171 -9.69140625 2.53125 C-6.52950444 -0.33125695 -4.1564062 -0.09035666 0 0 Z " fill="#3E4855" transform="translate(96,29)"/>
<path d="M0 0 C0.33 0 0.66 0 1 0 C0.23278896 7.41637335 -0.48708297 12.64922758 -6 18 C-6.69589379 19.17061203 -7.36096431 20.35990527 -8 21.5625 C-9.83144672 24.71029905 -10.8350257 26.3186074 -14 28 C-15.32 28 -16.64 28 -18 28 C-18.33 26.68 -18.66 25.36 -19 24 C-18.34 24 -17.68 24 -17 24 C-17 23.34 -17 22.68 -17 22 C-16.34 22 -15.68 22 -15 22 C-14.67 22.33 -14.34 22.66 -14 23 C-11.95272922 22.32087754 -11.95272922 22.32087754 -10 21 C-9.44739056 18.94085315 -9.44739056 18.94085315 -9.5 16.625 C-9.2811687 13.14053237 -9.2132385 12.26493268 -6.9375 9.4375 C-6.298125 8.963125 -5.65875 8.48875 -5 8 C-5 8.66 -5 9.32 -5 10 C-4.34 10 -3.68 10 -3 10 C-2.01 6.7 -1.02 3.4 0 0 Z " fill="#758495" transform="translate(190,98)"/>
<path d="M0 0 C-0.33 0.99 -0.66 1.98 -1 3 C0.98 3 2.96 3 5 3 C4.814375 3.61875 4.62875 4.2375 4.4375 4.875 C3.76313824 7.04160178 3.76313824 7.04160178 5 9 C-0.91882653 7.56605749 -6.82805394 6.09951364 -12.6875 4.4375 C-13.49574219 4.20933594 -14.30398437 3.98117188 -15.13671875 3.74609375 C-17 3 -17 3 -18 1 C-11.59233959 -0.83292414 -6.58723293 -1.04559253 0 0 Z " fill="#E6EAF0" transform="translate(111,121)"/>
<path d="M0 0 C2.31 0 4.62 0 7 0 C10.07692308 5.29230769 10.07692308 5.29230769 9.6875 8.875 C9.460625 9.57625 9.23375 10.2775 9 11 C5.69183862 12.10272046 3.29888363 12.21537818 0 11 C-1.4375 8.8125 -1.4375 8.8125 -2 6 C-1.125 2.6875 -1.125 2.6875 0 0 Z " fill="#8C9CAA" transform="translate(98,35)"/>
<path d="M0 0 C0.66 0.33 1.32 0.66 2 1 C0.768606 4.69418201 -1.20791354 6.35109746 -4 9 C-2.576875 8.2575 -2.576875 8.2575 -1.125 7.5 C2 6 2 6 4 6 C4 6.66 4 7.32 4 8 C1.66666667 10.33333333 -0.66666667 12.66666667 -3 15 C-3.556875 15.598125 -4.11375 16.19625 -4.6875 16.8125 C-6 18 -6 18 -8 18 C-8.125 11.375 -8.125 11.375 -7 8 C-8.32 8.33 -9.64 8.66 -11 9 C-7.67149253 5.40521193 -4.01028669 2.77635232 0 0 Z " fill="#CBD1DD" transform="translate(116,130)"/>
<path d="M0 0 C-0.33 0.99 -0.66 1.98 -1 3 C1.475 3.99 1.475 3.99 4 5 C1.06171403 7.50298434 -1.17902761 8.46930939 -5 9 C-5 8.34 -5 7.68 -5 7 C-7.97 7 -10.94 7 -14 7 C-14 6.01 -14 5.02 -14 4 C-10.02072403 0.77868136 -5.08558265 -2.54279133 0 0 Z " fill="#5B6C83" transform="translate(53,131)"/>
<path d="M0 0 C-1.37154504 2.95409701 -2.98863724 5.44008376 -5 8 C-3.68 8.99 -2.36 9.98 -1 11 C-3.56904115 10.55959295 -5.80907824 10.08727852 -8.1875 9 C-12.35973711 7.51653792 -16.60430602 7.32434247 -21 7 C-18.39182394 3.7721509 -15.533169 2.97958479 -11.625 1.8125 C-9.94277344 1.29623047 -9.94277344 1.29623047 -8.2265625 0.76953125 C-5.32542429 0.0776133 -2.96109058 -0.16080829 0 0 Z " fill="#37475E" transform="translate(75,98)"/>
<path d="M0 0 C0.33 0 0.66 0 1 0 C0.24304267 8.93209647 0.24304267 8.93209647 -3 13 C-5.49609375 13.5234375 -5.49609375 13.5234375 -8.4375 13.375 C-9.49324219 13.33117187 -10.54898438 13.28734375 -11.63671875 13.2421875 C-13.30154297 13.12230469 -13.30154297 13.12230469 -15 13 C-16.14082031 12.92007813 -17.28164062 12.84015625 -18.45703125 12.7578125 C-21.30844345 12.53457026 -24.15393931 12.28258759 -27 12 C-27 11.67 -27 11.34 -27 11 C-33.93 10.67 -40.86 10.34 -48 10 C-48 9.67 -48 9.34 -48 9 C-39.09 8.67 -30.18 8.34 -21 8 C-20.67 7.34 -20.34 6.68 -20 6 C-19.82726562 6.64453125 -19.65453125 7.2890625 -19.4765625 7.953125 C-18.07017372 10.40445882 -18.07017372 10.40445882 -14.5234375 10.609375 C-13.141427 10.67581781 -11.7583219 10.7219252 -10.375 10.75 C-9.66859375 10.77964844 -8.9621875 10.80929688 -8.234375 10.83984375 C-6.49019953 10.91055357 -4.74509173 10.95754035 -3 11 C-1.515 5.555 -1.515 5.555 0 0 Z " fill="#647383" transform="translate(180,75)"/>
<path d="M0 0 C-0.42152344 0.45890625 -0.84304687 0.9178125 -1.27734375 1.390625 C-1.82519531 2.00421875 -2.37304688 2.6178125 -2.9375 3.25 C-3.48277344 3.85328125 -4.02804688 4.4565625 -4.58984375 5.078125 C-6.06212799 7.08467305 -6.57529189 8.57002449 -7 11 C-6.34 11.33 -5.68 11.66 -5 12 C-5 12.66 -5 13.32 -5 14 C-7.64 14.66 -10.28 15.32 -13 16 C-12.67 14.35 -12.34 12.7 -12 11 C-12.99 11 -13.98 11 -15 11 C-13.65263662 8.06559801 -12.11433035 5.74926573 -10 3.3125 C-9.484375 2.71050781 -8.96875 2.10851563 -8.4375 1.48828125 C-5.56983132 -1.48069095 -3.80892497 -0.90211381 0 0 Z " fill="#5E6F85" transform="translate(45,32)"/>
<path d="M0 0 C0.66 0.33 1.32 0.66 2 1 C-5.50526106 5.04733974 -12.66710752 8.13002019 -21 10 C-21.66 9.34 -22.32 8.68 -23 8 C-23 7.01 -23 6.02 -23 5 C-20.89748139 4.32815382 -18.79292237 3.66269032 -16.6875 3 C-15.51574219 2.62875 -14.34398437 2.2575 -13.13671875 1.875 C-10 1 -10 1 -7 1 C-7 1.66 -7 2.32 -7 3 C-5.88625 2.484375 -4.7725 1.96875 -3.625 1.4375 C-2.42875 0.963125 -1.2325 0.48875 0 0 Z " fill="#42536A" transform="translate(152,148)"/>
<path d="M0 0 C3.22325167 3.53636755 4.09607939 7.45628658 5.125 12 C5.29386719 12.7115625 5.46273437 13.423125 5.63671875 14.15625 C6.09788337 16.10258258 6.54934183 18.05120793 7 20 C7.19980469 20.65742187 7.39960938 21.31484375 7.60546875 21.9921875 C8.26400222 25.34353607 8.18445704 28.72296591 8.1875 32.125 C8.19974609 32.85332031 8.21199219 33.58164063 8.22460938 34.33203125 C8.22985188 36.22282978 8.12233385 38.11315581 8 40 C7.34 40.66 6.68 41.32 6 42 C5.67 35.4 5.34 28.8 5 22 C4.34 24.64 3.68 27.28 3 30 C2.67 30 2.34 30 2 30 C2.01047363 29.410979 2.02094727 28.82195801 2.03173828 28.21508789 C2.07379554 25.49760354 2.0994818 22.78018804 2.125 20.0625 C2.14175781 19.13630859 2.15851563 18.21011719 2.17578125 17.25585938 C2.21840994 11.18127038 1.53224502 5.88164921 0 0 Z " fill="#7E8793" transform="translate(185,55)"/>
<path d="M0 0 C1.2271875 0.10183594 2.454375 0.20367187 3.71875 0.30859375 C4.6365625 0.39238281 5.554375 0.47617188 6.5 0.5625 C6.5 0.8925 6.5 1.2225 6.5 1.5625 C5.25347656 1.66046875 4.00695312 1.7584375 2.72265625 1.859375 C-7.51055969 2.73428516 -17.24952186 4.17245827 -27.19140625 6.7578125 C-30.5 7.5625 -30.5 7.5625 -33.5 7.5625 C-33.5 6.5725 -33.5 5.5825 -33.5 4.5625 C-30.66768453 3.91191471 -27.83427799 3.26693287 -25 2.625 C-24.20851563 2.44259766 -23.41703125 2.26019531 -22.6015625 2.07226562 C-14.93893936 0.345035 -7.9003901 -0.6836876 0 0 Z " fill="#CED6DF" transform="translate(140.5,107.4375)"/>
<path d="M0 0 C0.66 0.33 1.32 0.66 2 1 C1.90234375 2.828125 1.90234375 2.828125 1 5 C-6.51278709 8.97059679 -14.52573688 10.87866783 -23 10 C-22 8 -22 8 -20.29760742 7.25390625 C-19.57420166 7.02574219 -18.8507959 6.79757813 -18.10546875 6.5625 C-16.91920898 6.17964844 -16.91920898 6.17964844 -15.70898438 5.7890625 C-14.87689453 5.52867187 -14.04480469 5.26828125 -13.1875 5 C-11.55510604 4.48194253 -9.92356302 3.96119451 -8.29296875 3.4375 C-7.20278442 3.09525391 -7.20278442 3.09525391 -6.09057617 2.74609375 C-3.94386608 2.03886707 -3.94386608 2.03886707 -1.85668945 0.84765625 C-1.24398193 0.56792969 -0.63127441 0.28820312 0 0 Z " fill="#7A8DA0" transform="translate(148,142)"/>
<path d="M0 0 C1 3 1 3 -0.58984375 6.2578125 C-1.35897219 7.55492905 -2.14242038 8.8436264 -2.9375 10.125 C-3.54742798 11.12672241 -3.54742798 11.12672241 -4.16967773 12.14868164 C-7.57692547 17.60912458 -11.45622122 22.43145949 -16 27 C-16.99 26.34 -17.98 25.68 -19 25 C-15.57084304 19.37618258 -11.3004969 15.0171209 -6.453125 10.5859375 C-4.6800184 8.65077277 -3.5515293 6.62312222 -2.3125 4.3125 C-1.87550781 3.50425781 -1.43851563 2.69601563 -0.98828125 1.86328125 C-0.66214844 1.24839844 -0.33601563 0.63351563 0 0 Z " fill="#5C6A7B" transform="translate(186,111)"/>
<path d="M0 0 C0.92683594 0.00451172 1.85367188 0.00902344 2.80859375 0.01367188 C5.08079709 0.02538426 7.35286388 0.04178628 9.625 0.0625 C8.635 0.5575 8.635 0.5575 7.625 1.0625 C7.295 2.0525 6.965 3.0425 6.625 4.0625 C-9.73644578 4.31551205 -9.73644578 4.31551205 -15.375 3.0625 C-15.705 2.4025 -16.035 1.7425 -16.375 1.0625 C-10.89230931 -0.09414737 -5.57160726 -0.05166255 0 0 Z " fill="#F7F9FC" transform="translate(143.375,103.9375)"/>
<path d="M0 0 C-4.75 3 -4.75 3 -7 3 C-7 4.98 -7 6.96 -7 9 C-9.64 9.33 -12.28 9.66 -15 10 C-14.67 8.68 -14.34 7.36 -14 6 C-15.03060547 6.55880859 -15.03060547 6.55880859 -16.08203125 7.12890625 C-16.98308594 7.60199219 -17.88414063 8.07507813 -18.8125 8.5625 C-19.70582031 9.03816406 -20.59914063 9.51382813 -21.51953125 10.00390625 C-24 11 -24 11 -27 10 C-23.56386118 8.35131374 -20.12586207 6.70654396 -16.6875 5.0625 C-15.71103516 4.59392578 -14.73457031 4.12535156 -13.72851562 3.64257812 C-12.79072266 3.19462891 -11.85292969 2.74667969 -10.88671875 2.28515625 C-10.02264404 1.87144775 -9.15856934 1.45773926 -8.26831055 1.03149414 C-3.46216881 -1.15405627 -3.46216881 -1.15405627 0 0 Z " fill="#8392A8" transform="translate(73,121)"/>
<path d="M0 0 C4.455 0.99 4.455 0.99 9 2 C8.67 2.99 8.34 3.98 8 5 C10.31 5.33 12.62 5.66 15 6 C12.75467745 8.24532255 12.10628518 8.69198181 9 9 C6.50825812 8.32509391 4.21426866 7.59461631 1.8125 6.6875 C1.17119141 6.46126953 0.52988281 6.23503906 -0.13085938 6.00195312 C-4.86667239 4.26665522 -4.86667239 4.26665522 -6 2 C-3.03 2.495 -3.03 2.495 0 3 C0 2.01 0 1.02 0 0 Z " fill="#9BA2B3" transform="translate(70,109)"/>
<path d="M0 0 C0.99 0.33 1.98 0.66 3 1 C3 2.32 3 3.64 3 5 C-2.75836632 6.75139252 -8.5298783 8.4554127 -14.3125 10.125 C-15.46363281 10.45757812 -16.61476563 10.79015625 -17.80078125 11.1328125 C-20.52640719 11.87162686 -23.22407297 12.48960441 -26 13 C-23.64618401 10.26610336 -21.61210927 9.3221015 -18.18359375 8.28125 C-17.25482422 7.98863281 -16.32605469 7.69601563 -15.36914062 7.39453125 C-13.4111397 6.7970866 -11.45280455 6.20073622 -9.49414062 5.60546875 C-8.56666016 5.31285156 -7.63917969 5.02023438 -6.68359375 4.71875 C-5.40826782 4.33106445 -5.40826782 4.33106445 -4.10717773 3.93554688 C-1.66391905 3.07587253 -1.66391905 3.07587253 0 0 Z " fill="#8C94A6" transform="translate(85,89)"/>
<path d="M0 0 C1.24007812 -0.01224609 2.48015625 -0.02449219 3.7578125 -0.03710938 C5.53671875 -0.04000977 5.53671875 -0.04000977 7.3515625 -0.04296875 C8.43518066 -0.04707764 9.51879883 -0.05118652 10.63525391 -0.05541992 C13.375 0.1875 13.375 0.1875 16.375 2.1875 C4.165 2.5175 -8.045 2.8475 -20.625 3.1875 C-15.72058405 -1.71691595 -6.44913866 0.00337298 0 0 Z " fill="#677986" transform="translate(95.625,4.8125)"/>
<path d="M0 0 C4.42326378 1.35155282 6.40412982 3.19890438 9 7 C10.1577506 10.47325181 10.06866652 13.36067448 10 17 C9.34 16.67 8.68 16.34 8 16 C8 15.34 8 14.68 8 14 C7.01 14.33 6.02 14.66 5 15 C5.04125 14.29875 5.0825 13.5975 5.125 12.875 C4.98331668 9.61628372 4.13265314 7.0440053 3 4 C1.68 4 0.36 4 -1 4 C-0.67 2.68 -0.34 1.36 0 0 Z " fill="#778697" transform="translate(102,31)"/>
<path d="M0 0 C0.33 0.66 0.66 1.32 1 2 C2.32 1.67 3.64 1.34 5 1 C5.33 2.98 5.66 4.96 6 7 C5.01 7.33 4.02 7.66 3 8 C3.75150023 11.27773504 3.75150023 11.27773504 7 13 C6.34 13.66 5.68 14.32 5 15 C5 14.34 5 13.68 5 13 C4.01 13 3.02 13 2 13 C1.67 12.34 1.34 11.68 1 11 C-1.31 11 -3.62 11 -6 11 C-5.34 9.68 -4.68 8.36 -4 7 C-3.34 7 -2.68 7 -2 7 C-2 6.01 -2 5.02 -2 4 C-1.34 4 -0.68 4 0 4 C0 2.68 0 1.36 0 0 Z " fill="#8D9DAC" transform="translate(137,54)"/>
<path d="M0 0 C0.53625 0.474375 1.0725 0.94875 1.625 1.4375 C1.295 2.4275 0.965 3.4175 0.625 4.4375 C-5.81485624 5.10831836 -9.21283423 3.19180238 -14.375 -0.5625 C-9.37580643 -3.06209678 -4.79856829 -3.15695282 0 0 Z " fill="#69788D" transform="translate(69.375,107.5625)"/>
<path d="M0 0 C1.81495662 0.44850658 3.62693134 0.90909571 5.4375 1.375 C6.95150391 1.75785156 6.95150391 1.75785156 8.49609375 2.1484375 C11 3 11 3 12 5 C14.02463255 5.65213292 14.02463255 5.65213292 16 6 C16 6.66 16 7.32 16 8 C14.02 8.99 12.04 9.98 10 11 C9.67 10.34 9.34 9.68 9 9 C6.97536745 8.34786708 6.97536745 8.34786708 5 8 C4.938125 7.38125 4.87625 6.7625 4.8125 6.125 C4.171081 3.72238859 4.171081 3.72238859 1.4375 2.75 C0.633125 2.5025 -0.17125 2.255 -1 2 C-0.67 1.34 -0.34 0.68 0 0 Z " fill="#5B6D82" transform="translate(97,124)"/>
<path d="M0 0 C1.75032844 0.14183696 3.50025534 0.28863429 5.25 0.4375 C6.71179688 0.55931641 6.71179688 0.55931641 8.203125 0.68359375 C10.56461753 0.95074584 12.71901065 1.35371968 15 2 C15 2.66 15 3.32 15 4 C14.34 4 13.68 4 13 4 C13 4.66 13 5.32 13 6 C10.64561267 7.42944945 9.51967567 8.08661261 6.75 7.625 C6.1725 7.41875 5.595 7.2125 5 7 C5 5.68 5 4.36 5 3 C3.35 2.67 1.7 2.34 0 2 C0 1.34 0 0.68 0 0 Z " fill="#F6F8FC" transform="translate(110,122)"/>
<path d="M0 0 C1.32 0.66 2.64 1.32 4 2 C4 1.34 4 0.68 4 0 C5.32 0.33 6.64 0.66 8 1 C7.01906046 3.45234885 6.31296172 4.7809268 4.125 6.3125 C1.62438037 7.121524 0.46961545 6.74088463 -2 6 C-2.99 6.495 -2.99 6.495 -4 7 C-4 5.68 -4 4.36 -4 3 C-2.68 2.67 -1.36 2.34 0 2 C0 1.34 0 0.68 0 0 Z M-6 5 C-5.01 6.32 -4.02 7.64 -3 9 C-4.65 9 -6.3 9 -8 9 C-7.34 7.68 -6.68 6.36 -6 5 Z " fill="#6E8195" transform="translate(128,113)"/>
<path d="M0 0 C1 2 1 2 1.21875 4.06640625 C2.1216758 12.07987277 6.00698771 15.89484138 12 21 C9 21 9 21 7.203125 19.6015625 C2.1303947 14.46795944 -2.04424033 9.03253349 -6 3 C-5.67 2.34 -5.34 1.68 -5 1 C-4.34 1.99 -3.68 2.98 -3 4 C-2.67 3.01 -2.34 2.02 -2 1 C-1.34 0.67 -0.68 0.34 0 0 Z " fill="#273345" transform="translate(20,114)"/>
<path d="M0 0 C0.33 0.66 0.66 1.32 1 2 C-0.32 2.33 -1.64 2.66 -3 3 C-2.67 3.99 -2.34 4.98 -2 6 C-1.34 5.34 -0.68 4.68 0 4 C0 4.99 0 5.98 0 7 C0.99 7.33 1.98 7.66 3 8 C-0.52679099 10.35119399 -2.02879485 10.21443452 -6.1875 10.125 C-7.27417969 10.10695313 -8.36085938 10.08890625 -9.48046875 10.0703125 C-10.72763672 10.03550781 -10.72763672 10.03550781 -12 10 C-10.85601085 6.56803255 -9.97505774 5.95251462 -7.125 3.875 C-6.42632812 3.35679688 -5.72765625 2.83859375 -5.0078125 2.3046875 C-3 1 -3 1 0 0 Z M-5 5 C-5.66 6.32 -6.32 7.64 -7 9 C-5.35 9 -3.7 9 -2 9 C-2.99 7.68 -3.98 6.36 -5 5 Z " fill="#687A8E" transform="translate(127,113)"/>
<path d="M0 0 C0.99 0 1.98 0 3 0 C3.66 0.66 4.32 1.32 5 2 C5.33 2 5.66 2 6 2 C6.33 4.64 6.66 7.28 7 10 C5.03533587 11.06775224 3.03144641 12.06553465 1 13 C0.34 12.67 -0.32 12.34 -1 12 C-0.690625 11.46375 -0.38125 10.9275 -0.0625 10.375 C1.17827439 7.6015043 1.5909675 4.99957163 2 2 C1.34 2 0.68 2 0 2 C0 1.34 0 0.68 0 0 Z " fill="#94A5B3" transform="translate(165,56)"/>
<path d="M0 0 C0.66 0.33 1.32 0.66 2 1 C2.625 3.5625 2.625 3.5625 3 6 C-3.4 10.06153846 -3.4 10.06153846 -6.4375 9.75 C-6.953125 9.5025 -7.46875 9.255 -8 9 C-7.875 7.25 -7.875 7.25 -7 5 C-4 2.8125 -4 2.8125 -1 1 C-0.67 0.67 -0.34 0.34 0 0 Z " fill="#75849A" transform="translate(28,110)"/>
<path d="M0 0 C-0.165 1.0725 -0.33 2.145 -0.5 3.25 C-1.21160726 8.82258642 -1.08411046 14.39263574 -1 20 C-1.33 20 -1.66 20 -2 20 C-2.04898438 19.30132812 -2.09796875 18.60265625 -2.1484375 17.8828125 C-2.22320312 16.97273438 -2.29796875 16.06265625 -2.375 15.125 C-2.47941406 13.76761719 -2.47941406 13.76761719 -2.5859375 12.3828125 C-2.79568132 9.82058097 -2.79568132 9.82058097 -5 8 C-5.33 7.67 -5.66 7.34 -6 7 C-6.66 7 -7.32 7 -8 7 C-7.39816251 4.97954558 -6.72693904 2.97888961 -6 1 C-4 0 -4 0 0 0 Z " fill="#728292" transform="translate(68,31)"/>
<path d="M0 0 C0.53625 0.37125 1.0725 0.7425 1.625 1.125 C-1.32031629 3.08854419 -2.85934845 3.57429706 -6.25 4.1875 C-7.51457031 4.42146484 -7.51457031 4.42146484 -8.8046875 4.66015625 C-9.65289062 4.81355469 -10.50109375 4.96695313 -11.375 5.125 C-13.04228549 5.45522413 -14.70914194 5.78764882 -16.375 6.125 C-16.045 5.465 -15.715 4.805 -15.375 4.125 C-17.85 3.135 -17.85 3.135 -20.375 2.125 C-20.375 1.465 -20.375 0.805 -20.375 0.125 C-19.18003906 0.26808594 -19.18003906 0.26808594 -17.9609375 0.4140625 C-12.4004087 0.99582099 -4.52498128 -1.66709837 0 0 Z " fill="#DDE3EB" transform="translate(98.375,111.875)"/>
<path d="M0 0 C-3.12488567 2.52394612 -6.31314387 4.39701907 -10 6 C-10.66 5.67 -11.32 5.34 -12 5 C-11.67 4.34 -11.34 3.68 -11 3 C-14.3 3 -17.6 3 -21 3 C-18.38946744 0.38946744 -16.95005246 0.62145901 -13.3125 0.375 C-12.24128906 0.30152344 -11.17007813 0.22804688 -10.06640625 0.15234375 C-6.6976928 -0.01501908 -3.37123457 -0.07661897 0 0 Z " fill="#546372" transform="translate(154,108)"/>
<path d="M0 0 C-3.22665727 3.22665727 -7.59758514 3.65164834 -11.93359375 4.8046875 C-15.19401874 6.07563023 -16.26503415 7.02754954 -18 10 C-19.65 9.67 -21.3 9.34 -23 9 C-17.53570829 1.97448209 -8.65806356 -0.34838706 0 0 Z " fill="#576575" transform="translate(74,8)"/>
<path d="M0 0 C3.08089673 2.77280706 4.68775452 5.06326356 6 9 C2.7 9 -0.6 9 -4 9 C-2.68 6.03 -1.36 3.06 0 0 Z " fill="#E9EDF3" transform="translate(120,186)"/>
<path d="M0 0 C-0.33 0.66 -0.66 1.32 -1 2 C-1.78375 2.144375 -2.5675 2.28875 -3.375 2.4375 C-6.02932322 2.75769758 -6.02932322 2.75769758 -7.5 4.5 C-9.49901075 6.49901075 -11.25393258 6.62890981 -14 7 C-13.8125 4.625 -13.8125 4.625 -13 2 C-10.625 0.75 -10.625 0.75 -8 0 C-4.71023192 -1.09658936 -3.28696233 -0.79953138 0 0 Z " fill="#C3C6D2" transform="translate(79,122)"/>
<path d="M0 0 C2 1 2 1 4 3 C4 3.66 4 4.32 4 5 C4.66 5.66 5.32 6.32 6 7 C3.1875 9.0625 3.1875 9.0625 0 11 C-0.99 10.67 -1.98 10.34 -3 10 C-2.01 9.67 -1.02 9.34 0 9 C0 8.01 0 7.02 0 6 C-0.99 5.67 -1.98 5.34 -3 5 C-2.625 3.0625 -2.625 3.0625 -2 1 C-1.34 0.67 -0.68 0.34 0 0 Z " fill="#58697E" transform="translate(44,20)"/>
<path d="M0 0 C2.96865509 2.54456151 4.3619751 5.48994665 6 9 C2.7 9 -0.6 9 -4 9 C-2.80100302 5.9168649 -1.52299523 2.93720508 0 0 Z " fill="#ECF0F5" transform="translate(51,186)"/>
<path d="M0 0 C0.99 0 1.98 0 3 0 C3 0.66 3 1.32 3 2 C3.99 1.67 4.98 1.34 6 1 C6 1.66 6 2.32 6 3 C6.66 3.33 7.32 3.66 8 4 C7.01 5.485 7.01 5.485 6 7 C3.8359375 7.29296875 3.8359375 7.29296875 1.375 7.1875 C0.55773437 7.16042969 -0.25953125 7.13335938 -1.1015625 7.10546875 C-2.04128906 7.05326172 -2.04128906 7.05326172 -3 7 C-2.01 4.69 -1.02 2.38 0 0 Z " fill="#6E7F91" transform="translate(64,23)"/>
<path d="M0 0 C0.66 0.33 1.32 0.66 2 1 C1.360625 1.2475 0.72125 1.495 0.0625 1.75 C-0.618125 2.1625 -1.29875 2.575 -2 3 C-2.1546875 3.94359375 -2.1546875 3.94359375 -2.3125 4.90625 C-3 7 -3 7 -5.28515625 8.484375 C-6.20167969 8.90203125 -7.11820313 9.3196875 -8.0625 9.75 C-9.44115234 10.39195313 -9.44115234 10.39195313 -10.84765625 11.046875 C-11.55792969 11.36140625 -12.26820313 11.6759375 -13 12 C-13.33 11.01 -13.66 10.02 -14 9 C-11.71439353 7.4693001 -9.42237333 5.95034956 -7.125 4.4375 C-6.14853516 3.78104492 -6.14853516 3.78104492 -5.15234375 3.11132812 C-3.47374503 2.01245164 -1.73976613 0.9992182 0 0 Z " fill="#6C7B8B" transform="translate(168,108)"/>
<path d="M0 0 C0.66 0.33 1.32 0.66 2 1 C0.68 2.65 -0.64 4.3 -2 6 C-0.68 6.99 0.64 7.98 2 9 C-2.05431692 10.15837626 -4.21812119 9.83691257 -8 8 C-5.94872955 4.0054207 -4.11087838 1.89732848 0 0 Z " fill="#748399" transform="translate(59,126)"/>
<path d="M0 0 C0 0.66 0 1.32 0 2 C-1.9375 3.75 -1.9375 3.75 -5 5 C-8.10286192 4.6627324 -11.01705517 3.90333188 -14 3 C-9.2903051 -0.1397966 -5.55597581 -1.63411053 0 0 Z " fill="#5D6C83" transform="translate(105,117)"/>
<path d="M0 0 C4.29 0 8.58 0 13 0 C13.33 0.99 13.66 1.98 14 3 C9.38 3 4.76 3 0 3 C0 2.01 0 1.02 0 0 Z " fill="#4C5266" transform="translate(141,182)"/>
<path d="M0 0 C0.66 0.33 1.32 0.66 2 1 C1.65987603 3.9677484 1.02726521 4.97323143 -1.14453125 7.10546875 C-2.02496094 7.79253906 -2.90539062 8.47960937 -3.8125 9.1875 C-5.12154297 10.22970703 -5.12154297 10.22970703 -6.45703125 11.29296875 C-8.76166455 12.84001138 -10.29410451 13.57740094 -13 14 C-9 10 -9 10 -7.0625 8.125 C-4.5462179 5.53246693 -2.28772427 2.79610744 0 0 Z " fill="#4C5D6F" transform="translate(167,134)"/>
<path d="M0 0 C0.33 0.66 0.66 1.32 1 2 C-0.4375 4.625 -0.4375 4.625 -2 7 C-1.34 7.33 -0.68 7.66 0 8 C-0.33 8.66 -0.66 9.32 -1 10 C3.95 10.33 8.9 10.66 14 11 C14 11.33 14 11.66 14 12 C7.73 12 1.46 12 -5 12 C-2.75 3 -2.75 3 0 0 Z " fill="#4E5E72" transform="translate(118,73)"/>
<path d="M0 0 C1.65 0 3.3 0 5 0 C5 0.66 5 1.32 5 2 C3.68 2 2.36 2 1 2 C0.938125 3.216875 0.87625 4.43375 0.8125 5.6875 C0.27159441 10.17383464 -1.45616799 12.14764741 -5 15 C-5.99 15.495 -5.99 15.495 -7 16 C-5.35433477 10.31497465 -2.70967216 5.23318364 0 0 Z " fill="#2F394A" transform="translate(49,182)"/>
<path d="M0 0 C-2.68287823 3.47196006 -5.82289183 4.0949599 -10 5 C-12.33215844 5.07403678 -14.66860788 5.09515886 -17 5 C-16 3 -16 3 -13.92578125 2.1484375 C-9.17052631 0.74105263 -5.01830661 -0.3961821 0 0 Z " fill="#D1D8E1" transform="translate(72,92)"/>
<path d="M0 0 C1.7717719 0.06016203 3.54258679 0.14899328 5.3125 0.25 C6.79169922 0.31960937 6.79169922 0.31960937 8.30078125 0.390625 C11 1 11 1 12.85546875 3.046875 C13.23316406 3.69140625 13.61085938 4.3359375 14 5 C9.06729471 6.6442351 6.45975807 5.18615592 2 3 C2 2.34 2 1.68 2 1 C1.34 0.67 0.68 0.34 0 0 Z " fill="#A8B2BA" transform="translate(108,16)"/>
<path d="M0 0 C0.66 0.33 1.32 0.66 2 1 C0.79618552 3.49361571 -0.45428722 5.68143083 -2 8 C-2.99 7.67 -3.98 7.34 -5 7 C-6.65 8.65 -8.3 10.3 -10 12 C-10 9 -10 9 -7.8125 6.73828125 C-6.884375 5.93777344 -5.95625 5.13726562 -5 4.3125 C-4.071875 3.50425781 -3.14375 2.69601563 -2.1875 1.86328125 C-1.1046875 0.94095703 -1.1046875 0.94095703 0 0 Z " fill="#47596F" transform="translate(119,139)"/>
<path d="M0 0 C0.99 0.33 1.98 0.66 3 1 C1.85408512 4.43774463 1.04311402 5.17413159 -2 7 C-3.32 7 -4.64 7 -6 7 C-6.33 5.68 -6.66 4.36 -7 3 C-6.34 3 -5.68 3 -5 3 C-5 2.34 -5 1.68 -5 1 C-4.34 1 -3.68 1 -3 1 C-2.67 1.33 -2.34 1.66 -2 2 C-1.34 1.34 -0.68 0.68 0 0 Z " fill="#728798" transform="translate(178,119)"/>
<path d="M0 0 C0 1.32 0 2.64 0 4 C-9.41002278 5.51708428 -9.41002278 5.51708428 -14 3 C-14 2.67 -14 2.34 -14 2 C-4.58997722 -0.29612756 -4.58997722 -0.29612756 0 0 Z " fill="#CCD3DF" transform="translate(107,120)"/>
<path d="M0 0 C0.66 0.99 1.32 1.98 2 3 C1.11264751 5.66205746 0.0859614 8.1312472 -1.0625 10.6875 C-1.42472656 11.49574219 -1.78695312 12.30398437 -2.16015625 13.13671875 C-2.43730469 13.75160156 -2.71445313 14.36648437 -3 15 C-3.99 14.67 -4.98 14.34 -6 14 C-5.37720331 12.41579871 -4.75166599 10.83267469 -4.125 9.25 C-3.60292969 7.92742187 -3.60292969 7.92742187 -3.0703125 6.578125 C-2.1353291 4.3259752 -1.12219206 2.16350541 0 0 Z " fill="#8393A3" transform="translate(190,94)"/>
<path d="M0 0 C0.66 0 1.32 0 2 0 C2 0.66 2 1.32 2 2 C3.32 2 4.64 2 6 2 C5.67 3.32 5.34 4.64 5 6 C7.475 6.99 7.475 6.99 10 8 C9.67 9.32 9.34 10.64 9 12 C4.80605982 9.48363589 2.073367 7.49229517 0 3 C0 2.01 0 1.02 0 0 Z " fill="#5E6F83" transform="translate(82,46)"/>
<path d="M0 0 C0.66 0.66 1.32 1.32 2 2 C-3.78357065 4.01167675 -8.90218999 4.22084624 -15 4 C-14 2 -14 2 -10.875 0.875 C-7.06048748 0.01365846 -3.89252479 -0.30529606 0 0 Z " fill="#6D8297" transform="translate(140,148)"/>
<path d="M0 0 C-7.07313157 3.04188957 -14.19539541 6 -22 6 C-17.93179632 2.41998076 -13.40347919 1.48069584 -8.1875 0.4375 C-2.4 -0.72 -2.4 -0.72 0 0 Z " fill="#D7DBE5" transform="translate(93,116)"/>
<path d="M0 0 C-0.66 0 -1.32 0 -2 0 C-2 0.99 -2 1.98 -2 3 C-6.65537393 3.83796731 -10.37078475 4.0161692 -15 3 C-13.875 1.5 -13.875 1.5 -12 0 C-8.9375 -0.125 -8.9375 -0.125 -6 0 C-3.50907189 -1.24546405 -2.58919267 -0.7767578 0 0 Z " fill="#3E4E65" transform="translate(69,102)"/>
<path d="M0 0 C3.0945871 0.3315629 4.02804686 1.02882594 6.25 3.3125 C8 6 8 6 8 10 C4.63362603 8.5572683 2.33497429 6.83532593 0 4 C0 2.68 0 1.36 0 0 Z " fill="#ECEEF2" transform="translate(91,92)"/>
<path d="M0 0 C1.32 0 2.64 0 4 0 C5.4140625 1.64453125 5.4140625 1.64453125 6.625 3.8125 C7.02976562 4.52019531 7.43453125 5.22789062 7.8515625 5.95703125 C8.23054688 6.63121094 8.60953125 7.30539063 9 8 C9.99 9.485 9.99 9.485 11 11 C10.34 11.66 9.68 12.32 9 13 C8.51789063 12.28972656 8.03578125 11.57945312 7.5390625 10.84765625 C6.90742187 9.92855469 6.27578125 9.00945312 5.625 8.0625 C4.99851562 7.14597656 4.37203125 6.22945312 3.7265625 5.28515625 C2.20228929 2.91612836 2.20228929 2.91612836 0 2 C0 1.34 0 0.68 0 0 Z " fill="#4D596D" transform="translate(119,184)"/>
<path d="M0 0 C0.66 0.33 1.32 0.66 2 1 C0.76058615 4.71824156 -0.9233963 5.67378745 -4 8 C-4.66 8.66 -5.32 9.32 -6 10 C-6.33 9.34 -6.66 8.68 -7 8 C-8.32 8.33 -9.64 8.66 -11 9 C-7.67149253 5.40521193 -4.01028669 2.77635232 0 0 Z " fill="#97A4B4" transform="translate(116,130)"/>
<path d="M0 0 C0.33 0 0.66 0 1 0 C0.6784528 7.07403834 -2.41663627 12.97386577 -6 19 C-6.66 19.33 -7.32 19.66 -8 20 C-6.59128327 15.68211942 -5.06140508 11.42904312 -3.4375 7.1875 C-3.00308594 6.04667969 -2.56867188 4.90585937 -2.12109375 3.73046875 C-1 1 -1 1 0 0 Z " fill="#616C79" transform="translate(127,53)"/>
<path d="M0 0 C-0.598125 0.433125 -1.19625 0.86625 -1.8125 1.3125 C-3.95434356 2.89035789 -3.95434356 2.89035789 -5.5 4.5 C-7.20510651 6.20510651 -9.04925479 7.5873914 -11 9 C-11.66 8.67 -12.32 8.34 -13 8 C-9.21111354 1.99004216 -7.27386155 -0.32328274 0 0 Z " fill="#546271" transform="translate(96,29)"/>
<path d="M0 0 C-0.928125 0.45375 -1.85625 0.9075 -2.8125 1.375 C-6.03921389 2.9421633 -6.03921389 2.9421633 -9 5 C-11.26171875 5.6328125 -11.26171875 5.6328125 -13.6875 6.125 C-14.49574219 6.29257813 -15.30398437 6.46015625 -16.13671875 6.6328125 C-16.75160156 6.75398438 -17.36648437 6.87515625 -18 7 C-17.67 6.34 -17.34 5.68 -17 5 C-14.4375 4.375 -14.4375 4.375 -12 4 C-11.67 3.01 -11.34 2.02 -11 1 C-9.2578125 0.234375 -9.2578125 0.234375 -7.125 -0.25 C-6.07699219 -0.50523438 -6.07699219 -0.50523438 -5.0078125 -0.765625 C-3 -1 -3 -1 0 0 Z " fill="#CACDD9" transform="translate(90,119)"/>
<path d="M0 0 C1.9453125 -0.29296875 1.9453125 -0.29296875 4.125 -0.1875 C5.40375 -0.125625 6.6825 -0.06375 8 0 C5.73762373 2.47266124 3.42546667 4.063866 0.5 5.6875 C-0.66015625 6.34298828 -0.66015625 6.34298828 -1.84375 7.01171875 C-4 8 -4 8 -7 8 C-6.21625 7.236875 -5.4325 6.47375 -4.625 5.6875 C-1.92742283 3.09108195 -1.92742283 3.09108195 0 0 Z " fill="#212E42" transform="translate(33,100)"/>
<path d="M0 0 C0.99 0.33 1.98 0.66 3 1 C3 1.99 3 2.98 3 4 C4.98 4.66 6.96 5.32 9 6 C9 6.33 9 6.66 9 7 C3.13190493 6.47606294 -1.54873741 5.23891142 -7 3 C-6.67 2.34 -6.34 1.68 -6 1 C-4.02 1.66 -2.04 2.32 0 3 C0 2.01 0 1.02 0 0 Z " fill="#313C4F" transform="translate(65,150)"/>
<path d="M0 0 C0 0.33 0 0.66 0 1 C-2.10320063 1.50404808 -4.20759791 2.00310508 -6.3125 2.5 C-8.07013672 2.91765625 -8.07013672 2.91765625 -9.86328125 3.34375 C-13 4 -13 4 -16 4 C-16 3.01 -16 2.02 -16 1 C-5.62642369 -1.48063781 -5.62642369 -1.48063781 0 0 Z " fill="#C3CCD7" transform="translate(123,111)"/>
<path d="M0 0 C3.33727786 1.17255709 5.77437487 2.18868404 8 5 C8 5.66 8 6.32 8 7 C7.01 7 6.02 7 5 7 C4.67 7.66 4.34 8.32 4 9 C3.67 7.35 3.34 5.7 3 4 C1.68 4 0.36 4 -1 4 C-0.67 2.68 -0.34 1.36 0 0 Z " fill="#7F8E9D" transform="translate(102,31)"/>
<path d="M0 0 C1.9451 2.91765 2.45276317 4.62537285 3 8 C2.01 8 1.02 8 0 8 C-0.66 6.68 -1.32 5.36 -2 4 C-2.99 4.99 -3.98 5.98 -5 7 C-5 3 -5 3 -4 1 C-1.9375 0.375 -1.9375 0.375 0 0 Z " fill="#4B5568" transform="translate(54,183)"/>
<path d="M0 0 C3.25 -0.375 3.25 -0.375 6 0 C6 0.66 6 1.32 6 2 C6.66 2.33 7.32 2.66 8 3 C4.04 3.99 0.08 4.98 -4 6 C-2.375 3 -2.375 3 0 0 Z " fill="#8994A2" transform="translate(111,86)"/>
<path d="M0 0 C0.66 0 1.32 0 2 0 C2.33 0.99 2.66 1.98 3 3 C5.00016466 4.20882096 5.00016466 4.20882096 7 5 C1.08739655 5.25706972 -4.23918159 4.2982126 -10 3 C-10 2.67 -10 2.34 -10 2 C-9.04287109 1.90912109 -9.04287109 1.90912109 -8.06640625 1.81640625 C-6.82697266 1.69072266 -6.82697266 1.69072266 -5.5625 1.5625 C-4.73878906 1.48128906 -3.91507812 1.40007812 -3.06640625 1.31640625 C-1.01337975 1.21069185 -1.01337975 1.21069185 0 0 Z " fill="#435266" transform="translate(111,117)"/>
<path d="M0 0 C2.31 0.33 4.62 0.66 7 1 C6.67 2.32 6.34 3.64 6 5 C3.69 5 1.38 5 -1 5 C-1.33 4.34 -1.66 3.68 -2 3 C-1.34 2.67 -0.68 2.34 0 2 C0 1.34 0 0.68 0 0 Z " fill="#8792A4" transform="translate(64,107)"/>
<path d="M0 0 C0.33 0.66 0.66 1.32 1 2 C-2.63423209 4.32590854 -5.77088331 4.16265833 -10 4 C-10.33 3.01 -10.66 2.02 -11 1 C-7.26562152 0.12132271 -3.83225427 -0.08912219 0 0 Z " fill="#BFC6CF" transform="translate(85,89)"/>
<path d="M0 0 C4.29 0 8.58 0 13 0 C13.33 0.99 13.66 1.98 14 3 C9.71 3 5.42 3 1 3 C0.67 2.01 0.34 1.02 0 0 Z " fill="#697283" transform="translate(136,199)"/>
<path d="M0 0 C1.72945653 0.14235457 3.45855654 0.28904382 5.1875 0.4375 C6.63189453 0.55931641 6.63189453 0.55931641 8.10546875 0.68359375 C10.78649602 0.97666151 13.3662986 1.42703754 16 2 C13.80866759 4.19133241 13.00112201 4.59444297 10 5 C7.67578125 4.51171875 7.67578125 4.51171875 5.3125 3.6875 C4.52488281 3.42324219 3.73726563 3.15898438 2.92578125 2.88671875 C1 2 1 2 0 0 Z " fill="#B0B8C9" transform="translate(69,113)"/>
<path d="M0 0 C0.33 0 0.66 0 1 0 C1.1875 2.375 1.1875 2.375 1 5 C-2 7 -2 7 -6 7 C-5.67 5.02 -5.34 3.04 -5 1 C-3.02 1.495 -3.02 1.495 -1 2 C-0.67 1.34 -0.34 0.68 0 0 Z " fill="#66778B" transform="translate(64,51)"/>
<path d="M0 0 C0.99 0.33 1.98 0.66 3 1 C3 3.97 3 6.94 3 10 C2.01 10.33 1.02 10.66 0 11 C-1.76062164 7.67438135 -2.10784228 6.40826005 -1.125 2.6875 C-0.568125 1.3571875 -0.568125 1.3571875 0 0 Z " fill="#8392A3" transform="translate(98,35)"/>
<path d="M0 0 C1.1875 1.6875 1.1875 1.6875 1.1875 3.6875 C1.8475 3.6875 2.5075 3.6875 3.1875 3.6875 C3.1875 4.3475 3.1875 5.0075 3.1875 5.6875 C0.8125 5.375 0.8125 5.375 -1.8125 4.6875 C-2.4725 3.6975 -3.1325 2.7075 -3.8125 1.6875 C-4.8025 1.0275 -5.7925 0.3675 -6.8125 -0.3125 C-2.28877737 -1.65739051 -2.28877737 -1.65739051 0 0 Z " fill="#414859" transform="translate(130.8125,196.3125)"/>
<path d="M0 0 C0.66 0.33 1.32 0.66 2 1 C2 2.32 2 3.64 2 5 C-0.64 5.33 -3.28 5.66 -6 6 C-4.98545548 3.4636387 -4.3146444 2.20648539 -2 0.6875 C-1.34 0.460625 -0.68 0.23375 0 0 Z " fill="#95A0B0" transform="translate(64,125)"/>
<path d="M0 0 C0.66 0 1.32 0 2 0 C2.93065133 2.60582371 3.14917407 3.64198224 2.0625 6.25 C1.5365625 7.11625 1.5365625 7.11625 1 8 C-0.32 8 -1.64 8 -3 8 C-1.125 2.25 -1.125 2.25 0 0 Z " fill="#454E5D" transform="translate(112,194)"/>
<path d="M0 0 C0.33 0.66 0.66 1.32 1 2 C1.99 2.33 2.98 2.66 4 3 C3.1875 4.9375 3.1875 4.9375 2 7 C1.01 7.33 0.02 7.66 -1 8 C-1.04241723 5.66705225 -1.04092937 3.33297433 -1 1 C-0.67 0.67 -0.34 0.34 0 0 Z " fill="#ADB8C8" transform="translate(109,140)"/>
<path d="M0 0 C0.33 0.66 0.66 1.32 1 2 C4.02934491 2.65772428 4.02934491 2.65772428 7 3 C5.25 4.5625 5.25 4.5625 3 6 C0.75 5.6875 0.75 5.6875 -1 5 C-1 1 -1 1 0 0 Z " fill="#F0EFF6" transform="translate(116,124)"/>
<path d="M0 0 C0.33 1.32 0.66 2.64 1 4 C-0.98 4.99 -0.98 4.99 -3 6 C-3.66 5.34 -4.32 4.68 -5 4 C-5 3.01 -5 2.02 -5 1 C-3 0 -3 0 0 0 Z " fill="#5D6F85" transform="translate(39,62)"/>
<path d="M0 0 C-1.98 0.66 -3.96 1.32 -6 2 C-6 2.66 -6 3.32 -6 4 C-10.455 5.485 -10.455 5.485 -15 7 C-11.30105241 2.68456114 -5.76210785 -1.92070262 0 0 Z " fill="#323D4B" transform="translate(55,15)"/>
<path d="M0 0 C0.66 0.66 1.32 1.32 2 2 C0.68 4.31 -0.64 6.62 -2 9 C-3.32 8.67 -4.64 8.34 -6 8 C-4.73046875 6.50260417 -3.4609375 5.00520833 -2.19140625 3.5078125 C-0.9121848 1.99405921 -0.9121848 1.99405921 0 0 Z " fill="#4D586C" transform="translate(45,193)"/>
<path d="M0 0 C1.65 0.33 3.3 0.66 5 1 C4.67 2.32 4.34 3.64 4 5 C2.02 5 0.04 5 -2 5 C-1.34 4.67 -0.68 4.34 0 4 C0 2.68 0 1.36 0 0 Z " fill="#EEF2F6" transform="translate(147,194)"/>
<path d="M0 0 C0.66 0.33 1.32 0.66 2 1 C-4.07792208 7.24675325 -4.07792208 7.24675325 -7 9 C-7.99 8.67 -8.98 8.34 -10 8 C-8.9171875 7.4121875 -8.9171875 7.4121875 -7.8125 6.8125 C-4.772674 4.85350102 -2.47872273 2.62036403 0 0 Z " fill="#607288" transform="translate(161,139)"/>
<path d="M0 0 C3.96 1.98 3.96 1.98 8 4 C8 4.66 8 5.32 8 6 C7.01 6 6.02 6 5 6 C5 6.66 5 7.32 5 8 C4.34 8 3.68 8 3 8 C3 7.34 3 6.68 3 6 C2.34 5.67 1.68 5.34 1 5 C1.66 5 2.32 5 3 5 C3 4.34 3 3.68 3 3 C2.01 2.67 1.02 2.34 0 2 C0 1.34 0 0.68 0 0 Z " fill="#8395A5" transform="translate(152,70)"/>
<path d="M0 0 C1.65 0.33 3.3 0.66 5 1 C4.34 2.32 3.68 3.64 3 5 C1.35 4.67 -0.3 4.34 -2 4 C-1.34 2.68 -0.68 1.36 0 0 Z " fill="#A4B4C3" transform="translate(162,57)"/>
<path d="M0 0 C0.66 0.33 1.32 0.66 2 1 C-1.3 3.64 -4.6 6.28 -8 9 C-8.33 8.34 -8.66 7.68 -9 7 C-6.3765992 4.08511023 -3.28183606 2.11496102 0 0 Z " fill="#697D8E" transform="translate(170,127)"/>
<path d="M0 0 C0.66 0.33 1.32 0.66 2 1 C-3.96583144 8.66742597 -3.96583144 8.66742597 -9 10 C-6.68116787 5.49115974 -3.93548431 3.06093224 0 0 Z " fill="#93A6B7" transform="translate(173,126)"/>
<path d="M0 0 C0.66 0 1.32 0 2 0 C0.54955729 4.10958767 -1.51110752 7.43258745 -4 11 C-4.66 10.34 -5.32 9.68 -6 9 C-5.05016642 7.49460339 -4.08988109 5.99579653 -3.125 4.5 C-2.59132813 3.6646875 -2.05765625 2.829375 -1.5078125 1.96875 C-0.76144531 0.99421875 -0.76144531 0.99421875 0 0 Z " fill="#E9EDF2" transform="translate(107,85)"/>
<path d="M0 0 C1.32 0 2.64 0 4 0 C4.33 1.65 4.66 3.3 5 5 C3.0625 5.5625 3.0625 5.5625 1 6 C0 5 0 5 -0.0625 2.4375 C-0.041875 1.633125 -0.02125 0.82875 0 0 Z " fill="#9AA8B4" transform="translate(100,37)"/>
<path d="M0 0 C-6.45 4.09326923 -6.45 4.09326923 -9.234375 3.62109375 C-9.81703125 3.41613281 -10.3996875 3.21117188 -11 3 C-9.73581754 2.30034557 -8.46334598 1.61565237 -7.1875 0.9375 C-6.47980469 0.55464844 -5.77210937 0.17179687 -5.04296875 -0.22265625 C-3 -1 -3 -1 0 0 Z " fill="#8C98AC" transform="translate(73,121)"/>
<path d="M0 0 C0.33 0.99 0.66 1.98 1 3 C1.99 3.33 2.98 3.66 4 4 C0.91111478 6.05925681 0.29064073 6.2390374 -3.1875 6.125 C-5.0746875 6.063125 -5.0746875 6.063125 -7 6 C-7 5.67 -7 5.34 -7 5 C-5.824375 4.87625 -5.824375 4.87625 -4.625 4.75 C-1.85250896 4.27193661 -1.85250896 4.27193661 -0.6875 1.9375 C-0.460625 1.298125 -0.23375 0.65875 0 0 Z " fill="#5B6B7B" transform="translate(126,117)"/>
<path d="M0 0 C0.66 0.33 1.32 0.66 2 1 C1.67 2.32 1.34 3.64 1 5 C0.01 5 -0.98 5 -2 5 C-3.67099977 5.31088368 -5.33871537 5.64080332 -7 6 C-5.62209707 3.24419414 -3.62850007 2.51138754 -1 1 C-0.67 0.67 -0.34 0.34 0 0 Z " fill="#828EA1" transform="translate(28,110)"/>
<path d="M0 0 C0.66 0 1.32 0 2 0 C2.53229326 1.26607607 3.05044544 2.53810412 3.5625 3.8125 C3.85253906 4.52019531 4.14257812 5.22789063 4.44140625 5.95703125 C5 8 5 8 4 11 C3.32591692 9.73308493 2.66099503 8.46129251 2 7.1875 C1.62875 6.47980469 1.2575 5.77210937 0.875 5.04296875 C0 3 0 3 0 0 Z " fill="#E3E6EC" transform="translate(70,60)"/>
<path d="M0 0 C0.99 0.33 1.98 0.66 3 1 C0.03839944 4.12613393 -2.09567131 6.04783565 -6 8 C-4.02 5.36 -2.04 2.72 0 0 Z " fill="#48586A" transform="translate(25,35)"/>
<path d="M0 0 C2 2 2 2 2 5 C0.35 5.33 -1.3 5.66 -3 6 C-2.625 3.5625 -2.625 3.5625 -2 1 C-1.34 0.67 -0.68 0.34 0 0 Z " fill="#ACB4C3" transform="translate(68,123)"/>
<path d="M0 0 C4.455 0.99 4.455 0.99 9 2 C8.67 2.66 8.34 3.32 8 4 C5.6875 4.25 5.6875 4.25 3 4 C1.1875 2 1.1875 2 0 0 Z " fill="#AFB9CB" transform="translate(70,109)"/>
<path d="M0 0 C0.9075 0.78375 1.815 1.5675 2.75 2.375 C5.05190236 4.30052496 7.21577207 5.82205741 10 7 C7.92446352 7.5534764 6.15634036 8 4 8 C2.21694476 5.36107824 1.00940379 3.02821137 0 0 Z " fill="#334259" transform="translate(33,93)"/>
<path d="M0 0 C0.33 0 0.66 0 1 0 C0.67 2.31 0.34 4.62 0 7 C-1.66666667 7 -3.33333333 7 -5 7 C-4.67 5.68 -4.34 4.36 -4 3 C-2.68 3 -1.36 3 0 3 C0 2.01 0 1.02 0 0 Z " fill="#8898A8" transform="translate(131,55)"/>
<path d="M0 0 C2.64 0.33 5.28 0.66 8 1 C7.67 1.66 7.34 2.32 7 3 C5.35 3 3.7 3 2 3 C1.67 3.99 1.34 4.98 1 6 C0.34 6 -0.32 6 -1 6 C-1 5.34 -1 4.68 -1 4 C-0.34 4 0.32 4 1 4 C0.67 2.68 0.34 1.36 0 0 Z " fill="#758696" transform="translate(99,45)"/>
<path d="M0 0 C2.31 0.33 4.62 0.66 7 1 C7 1.66 7 2.32 7 3 C4.69 3 2.38 3 0 3 C0 2.01 0 1.02 0 0 Z " fill="#303748" transform="translate(141,190)"/>
<path d="M0 0 C0.99 0 1.98 0 3 0 C3.33 0.99 3.66 1.98 4 3 C2.68 3.99 1.36 4.98 0 6 C-0.66 5.34 -1.32 4.68 -2 4 C-1.34 2.68 -0.68 1.36 0 0 Z " fill="#6D7C8C" transform="translate(169,132)"/>
<path d="M0 0 C0.99 0.33 1.98 0.66 3 1 C1.75453595 4.73639216 0.36595047 5.18756513 -3 7 C-2.625 4.0625 -2.625 4.0625 -2 1 C-1.34 0.67 -0.68 0.34 0 0 Z " fill="#7E90A3" transform="translate(178,119)"/>
<path d="M0 0 C0.66 0 1.32 0 2 0 C2 2.64 2 5.28 2 8 C1.01 8 0.02 8 -1 8 C-1.33 7.01 -1.66 6.02 -2 5 C-1.34 4.67 -0.68 4.34 0 4 C0 2.68 0 1.36 0 0 Z " fill="#8293A5" transform="translate(136,68)"/>
<path d="M0 0 C0 0.66 0 1.32 0 2 C-0.99 2.33 -1.98 2.66 -3 3 C-3.73323796 5.01508358 -3.73323796 5.01508358 -4 7 C-4.99 7 -5.98 7 -7 7 C-3.72340426 0 -3.72340426 0 0 0 Z " fill="#718597" transform="translate(144,125)"/>
<path d="M0 0 C-1.32 1.32 -2.64 2.64 -4 4 C-4.99 3.67 -5.98 3.34 -7 3 C-7 2.34 -7 1.68 -7 1 C-3.375 -1.125 -3.375 -1.125 0 0 Z " fill="#394E6A" transform="translate(82,125)"/>
<path d="M0 0 C0.66 0.33 1.32 0.66 2 1 C1.360625 1.2475 0.72125 1.495 0.0625 1.75 C-2.19895007 2.79688294 -2.19895007 2.79688294 -2.5625 5.0625 C-2.7790625 6.0215625 -2.7790625 6.0215625 -3 7 C-3.99 7.33 -4.98 7.66 -6 8 C-4.73058503 4.08597051 -3.48832306 2.20927127 0 0 Z " fill="#74818F" transform="translate(168,108)"/>
<path d="M0 0 C0.66 0.66 1.32 1.32 2 2 C-4.75 6 -4.75 6 -7 6 C-6.67 4.68 -6.34 3.36 -6 2 C-4.7934375 1.7834375 -4.7934375 1.7834375 -3.5625 1.5625 C-1.07896294 1.25864751 -1.07896294 1.25864751 0 0 Z " fill="#4D6179" transform="translate(39,112)"/>
<path d="M0 0 C0 0.66 0 1.32 0 2 C0.99 2.33 1.98 2.66 3 3 C-0.47823115 4.15941038 -2.45895578 3.70820884 -6 3 C-3.375 0 -3.375 0 0 0 Z " fill="#48566B" transform="translate(60,102)"/>
<path d="M0 0 C1.32 0 2.64 0 4 0 C4 2.31 4 4.62 4 7 C3.34 7 2.68 7 2 7 C1.67 6.01 1.34 5.02 1 4 C1.33 3.67 1.66 3.34 2 3 C1.34 2.67 0.68 2.34 0 2 C0 1.34 0 0.68 0 0 Z " fill="#65778A" transform="translate(61,41)"/>
<path d="M0 0 C0.33 1.32 0.66 2.64 1 4 C-1.31 4.66 -3.62 5.32 -6 6 C-4 4 -2 2 0 0 Z " fill="#455669" transform="translate(127,133)"/>
<path d="M0 0 C2.475 0.495 2.475 0.495 5 1 C5 2.32 5 3.64 5 5 C3.68 4.67 2.36 4.34 1 4 C0.67 2.68 0.34 1.36 0 0 Z " fill="#90A2B1" transform="translate(159,78)"/>
<path d="M0 0 C2 1.375 2 1.375 4 3 C4 3.66 4 4.32 4 5 C2.02 5 0.04 5 -2 5 C-1.34 3.35 -0.68 1.7 0 0 Z " fill="#56677E" transform="translate(36,41)"/>
<path d="M0 0 C2.875 -0.125 2.875 -0.125 6 0 C8 2 8 2 8 4 C2.25 2.25 2.25 2.25 0 0 Z " fill="#AEB9C4" transform="translate(108,16)"/>
</svg>
